<?xml version="1.0" encoding="UTF-8" standalone="no"?>
<!-- Generator: Adobe Illustrator 18.1.1, SVG Export Plug-In . SVG Version: 6.00 Build 0)  -->

<svg
   xmlns:dc="http://purl.org/dc/elements/1.1/"
   xmlns:cc="http://creativecommons.org/ns#"
   xmlns:rdf="http://www.w3.org/1999/02/22-rdf-syntax-ns#"
   xmlns:svg="http://www.w3.org/2000/svg"
   xmlns="http://www.w3.org/2000/svg"
   xmlns:sodipodi="http://sodipodi.sourceforge.net/DTD/sodipodi-0.dtd"
   xmlns:inkscape="http://www.inkscape.org/namespaces/inkscape"
   version="1.1"
   id="Tryb_izolacji"
   x="0px"
   y="0px"
   viewBox="0 0 320 220"
   enable-background="new 0 0 363.9 264.5"
   xml:space="preserve"
   inkscape:version="0.48.4 r9939"
   width="100%"
   height="100%"
   sodipodi:docname="book.svg"><metadata
     id="metadata62"><rdf:RDF><cc:Work
         rdf:about=""><dc:format>image/svg+xml</dc:format><dc:type
           rdf:resource="http://purl.org/dc/dcmitype/StillImage" /></cc:Work></rdf:RDF></metadata><defs
     id="defs60" /><sodipodi:namedview
     pagecolor="#ffffff"
     bordercolor="#666666"
     borderopacity="1"
     objecttolerance="10"
     gridtolerance="10"
     guidetolerance="10"
     inkscape:pageopacity="0"
     inkscape:pageshadow="2"
     inkscape:window-width="1920"
     inkscape:window-height="1026"
     id="namedview58"
     showgrid="false"
     showguides="true"
     inkscape:guide-bbox="true"
     inkscape:zoom="2.8284271"
     inkscape:cx="253.42764"
     inkscape:cy="121.75769"
     inkscape:window-x="1080"
     inkscape:window-y="840"
     inkscape:window-maximized="1"
     inkscape:current-layer="Tryb_izolacji"
     borderlayer="false"
     inkscape:showpageshadow="false"><sodipodi:guide
       orientation="1,0"
       position="159.98291,186.76458"
       id="guide3039" /></sodipodi:namedview><g
     id="g3"
     transform="matrix(0.90523119,0,0,0.90523119,-13.385755,-6.8902701)"><g
       id="g5"><path
         d="m 339.1,28.4 -150,5.3 -150,-5.3 c -3.3,0 -4,4.7 -4,4.7 v 204.7 h 154 154 V 33.1 c 0,0 -0.6,-4.7 -4,-4.7 z"
         id="path7"
         inkscape:connector-curvature="0"
         style="fill:#85c8dd" /><g
         id="g9"><path
           d="m 42.8,28.4 c 0,0 101.7,-23.5 148.7,0 V 229.7 H 42.8 V 28.4 z"
           id="path11"
           inkscape:connector-curvature="0"
           style="fill:#fbfdfb" /><path
           d="m 191.5,28.4 c 0,0 8,-21.7 76,-11.9 68,9.9 68,9.9 68,9.9 v 203.3 h -144 V 28.4 z"
           id="path13"
           inkscape:connector-curvature="0"
           style="fill:#fbfdfb" /><path
           d="m 191.5,229.7 c 0,0 -21.3,-23.3 -148.7,0 h 148.7 z"
           id="path15"
           inkscape:connector-curvature="0"
           style="fill:#cbe6ed" /><path
           d="m 191.5,229.7 c 0,0 24,-26.7 144,0 h -144 z"
           id="path17"
           inkscape:connector-curvature="0"
           style="fill:#cbe6ed" /></g></g><line
       stroke-miterlimit="10"
       x1="191.8"
       y1="230.10001"
       x2="191.5"
       y2="28.4"
       id="line19"
       style="fill:none;stroke:#cbe6ed;stroke-miterlimit:10" /><g
       id="g21"><g
         id="g23"><path
           d="m 68.9,208.1 c 0.5,0 0.7,-0.1 1.2,-0.1 0,0.3 0,0.5 0.1,0.9 -0.5,0 -0.7,0 -1.2,0.1 0.1,0.8 0.1,1.1 0.2,1.9 -0.4,0 -0.7,0 -1.1,0.1 -0.1,-0.8 -0.1,-1.1 -0.2,-1.9 -1.6,0.1 -2.3,0.2 -3.9,0.4 0,-0.2 0,-0.4 -0.1,-0.6 1.3,-2.3 1.9,-3.5 3.3,-6 0.5,-0.1 0.7,-0.1 1.2,-0.2 0.2,2.1 0.3,3.2 0.5,5.4 z m -3.7,0.4 c 1.1,-0.1 1.6,-0.2 2.7,-0.3 -0.2,-1.6 -0.2,-2.4 -0.4,-4 0,0.1 -0.1,0.1 -0.1,0.2 -0.9,1.7 -1.4,2.5 -2.2,4.1 z"
           id="path25"
           inkscape:connector-curvature="0"
           style="fill:#5b5c5c" /><path
           d="m 76.5,206.8 c 0.1,1.3 -0.1,2.3 -0.5,2.9 -0.4,0.6 -1.1,1 -2,1 -0.9,0 -1.6,-0.2 -2.1,-0.8 -0.5,-0.6 -0.8,-1.4 -0.9,-2.6 0,-0.6 -0.1,-0.8 -0.1,-1.4 -0.1,-1.2 0,-2.2 0.4,-2.8 0.4,-0.6 1.1,-1 2,-1.1 1,-0.1 1.7,0.1 2.2,0.7 0.5,0.6 0.8,1.5 0.8,2.7 0.2,0.6 0.2,0.9 0.2,1.4 z m -1.2,-1.4 c -0.1,-0.9 -0.2,-1.6 -0.5,-2 -0.3,-0.4 -0.7,-0.6 -1.3,-0.5 -0.6,0.1 -1,0.3 -1.2,0.7 -0.2,0.4 -0.3,1.1 -0.3,1.9 0.1,0.7 0.1,1 0.1,1.7 0.1,0.9 0.3,1.6 0.6,2 0.3,0.4 0.7,0.6 1.3,0.6 0.5,0 0.9,-0.2 1.2,-0.7 0.2,-0.4 0.3,-1.1 0.3,-2 -0.1,-0.6 -0.1,-1 -0.2,-1.7 z"
           id="path27"
           inkscape:connector-curvature="0"
           style="fill:#5b5c5c" /><path
           d="m 79.5,205.5 c 0.3,0 0.5,0 0.8,0 0.5,0 0.9,-0.2 1.2,-0.5 0.3,-0.3 0.4,-0.7 0.4,-1.2 0,-1.1 -0.6,-1.6 -1.6,-1.5 -0.5,0 -0.9,0.2 -1.1,0.5 -0.2,0.3 -0.4,0.7 -0.4,1.1 -0.4,0 -0.7,0 -1.1,0.1 0,-0.7 0.2,-1.3 0.7,-1.8 0.5,-0.5 1.1,-0.8 1.9,-0.8 0.8,-0.1 1.5,0.1 2,0.6 0.5,0.4 0.7,1.1 0.8,1.9 0,0.4 -0.1,0.8 -0.3,1.2 -0.2,0.4 -0.6,0.7 -1,0.9 0.5,0.1 0.9,0.4 1.1,0.8 0.3,0.4 0.4,0.8 0.4,1.4 0,0.8 -0.2,1.5 -0.7,2 -0.5,0.5 -1.1,0.7 -1.9,0.7 -0.8,0 -1.5,-0.2 -2,-0.7 -0.5,-0.4 -0.8,-1 -0.8,-1.8 0.4,0 0.7,0 1.1,0 0,0.5 0.2,0.8 0.5,1.1 0.3,0.3 0.7,0.4 1.2,0.4 0.5,0 0.9,-0.2 1.2,-0.4 0.3,-0.3 0.4,-0.7 0.4,-1.3 0,-0.5 -0.2,-0.9 -0.5,-1.2 -0.3,-0.3 -0.8,-0.4 -1.4,-0.4 -0.3,0 -0.5,0 -0.8,0 -0.1,-0.6 -0.1,-0.7 -0.1,-1.1 z"
           id="path29"
           inkscape:connector-curvature="0"
           style="fill:#5b5c5c" /></g></g><g
       id="g31"><g
         id="g33"><path
           d="m 307.3,208.3 c 0.5,0 0.7,0.1 1.2,0.1 0,0.4 0,0.5 -0.1,0.9 -0.5,0 -0.7,0 -1.2,-0.1 -0.1,0.8 -0.1,1.2 -0.2,2.1 -0.4,0 -0.7,0 -1.1,-0.1 0.1,-0.8 0.1,-1.2 0.2,-2.1 -1.6,-0.1 -2.4,-0.2 -3.9,-0.3 0,-0.3 0,-0.4 0.1,-0.7 1.8,-2.4 2.7,-3.6 4.4,-5.9 0.5,0.1 0.7,0.1 1.1,0.1 -0.2,2.5 -0.3,3.6 -0.5,6 z m -3.8,-0.3 c 1.1,0.1 1.6,0.1 2.7,0.2 0.2,-1.7 0.2,-2.6 0.4,-4.4 -0.1,0.1 -0.1,0.1 -0.1,0.2 -1.2,1.6 -1.8,2.4 -3,4 z"
           id="path35"
           inkscape:connector-curvature="0"
           style="fill:#656666" /><path
           d="m 315,207.9 c -0.1,1.2 -0.3,2.2 -0.8,2.7 -0.5,0.6 -1.2,0.9 -2.1,0.9 -0.9,0 -1.6,-0.3 -2,-1 -0.4,-0.7 -0.6,-1.6 -0.5,-2.8 0,-0.6 0.1,-0.9 0.1,-1.5 0.1,-1.3 0.4,-2.2 0.8,-2.8 0.4,-0.6 1.2,-0.8 2.1,-0.7 0.9,0.1 1.5,0.4 1.9,1 0.4,0.6 0.6,1.5 0.5,2.7 0,0.7 0,1 0,1.5 z m -1.1,-1.5 c 0,-0.9 0,-1.6 -0.3,-2 -0.2,-0.4 -0.6,-0.7 -1.2,-0.7 -0.5,0 -1,0.1 -1.2,0.5 -0.3,0.4 -0.5,1 -0.5,1.9 0,0.7 -0.1,1.1 -0.1,1.8 -0.1,0.9 0,1.6 0.3,2.1 0.2,0.5 0.6,0.7 1.2,0.7 0.5,0 1,-0.2 1.3,-0.6 0.3,-0.4 0.5,-1 0.5,-1.9 0,-0.7 0,-1.1 0,-1.8 z"
           id="path37"
           inkscape:connector-curvature="0"
           style="fill:#656666" /><path
           d="m 316.9,207.4 c 0.2,-1.6 0.4,-2.4 0.6,-4.1 1.7,0.1 2.6,0.2 4.3,0.3 0,0.4 0,0.6 0,0.9 -1.4,-0.1 -2.1,-0.1 -3.4,-0.2 -0.1,0.9 -0.2,1.3 -0.3,2.2 0.4,-0.2 0.9,-0.3 1.4,-0.3 0.8,0 1.4,0.3 1.8,0.8 0.5,0.5 0.7,1.1 0.7,1.9 0,0.8 -0.3,1.4 -0.8,1.9 -0.5,0.5 -1.2,0.7 -2.1,0.7 -0.8,0 -1.4,-0.2 -1.9,-0.6 -0.5,-0.4 -0.7,-1 -0.8,-1.7 0.4,0 0.6,0 1,0 0.1,0.5 0.2,0.8 0.5,1.1 0.3,0.2 0.7,0.4 1.1,0.4 0.5,0 0.9,-0.2 1.2,-0.5 0.3,-0.3 0.5,-0.8 0.5,-1.3 0,-0.5 -0.1,-1 -0.4,-1.3 -0.3,-0.3 -0.7,-0.5 -1.2,-0.5 -0.5,0 -0.8,0.1 -1.1,0.3 -0.1,0.1 -0.2,0.1 -0.3,0.2 -0.3,-0.1 -0.5,-0.1 -0.8,-0.2 z"
           id="path39"
           inkscape:connector-curvature="0"
           style="fill:#656666" /></g></g></g><path
     d="M 175.03225,13.028859"
     id="path41"
     inkscape:connector-curvature="0"
     style="fill:#e7f4f7" /><g
     id="g43"
     transform="matrix(0.90523119,0,0,0.90523119,1.6804761,-12.679707)"><g
       id="g45"
       style="opacity:0.12000002"><polyline
         points="194.2,228.8 204.6,174.2 210.9,154.2 197.3,180.8 201.5,147.9 198.4,110.9 207.8,76.6     200.5,79.1 205.7,62.3 198.4,72.9 205.7,39.7 197.3,61.4 203.6,36.1 196.3,49.3 193.5,28.4   "
         id="polyline47"
         style="fill:#999999" /></g><g
       id="g49"><linearGradient
         id="SVGID_1_"
         gradientUnits="userSpaceOnUse"
         x1="208.9115"
         y1="128.6037"
         x2="191.4727"
         y2="128.6037"><stop
           offset="0"
           style="stop-color:#A5DFF2;stop-opacity:0"
           id="stop52" /><stop
           offset="1"
           style="stop-color:#FFFFFF"
           id="stop54" /></linearGradient><polyline
         points="192.2,228.8 202.6,174.2 208.9,154.2 195.3,180.8 199.5,147.9 196.4,110.9 205.8,76.6     198.5,79.1 203.7,62.3 196.4,72.9 203.7,39.7 195.3,61.4 201.6,36.1 194.3,49.3 191.5,28.4   "
         id="polyline56"
         style="fill:url(#SVGID_1_)" /></g></g></svg>