<?xml version="1.0" encoding="utf-8"?>
<!-- Generator: Adobe Illustrator 18.1.1, SVG Export Plug-In . SVG Version: 6.00 Build 0)  -->
<svg version="1.1" id="Warstwa_1" xmlns="http://www.w3.org/2000/svg" xmlns:xlink="http://www.w3.org/1999/xlink" x="0px" y="0px"
	 viewBox="133 -20 72 55" enable-background="new 133 -20 72 55" xml:space="preserve">
<g>
	<path fill="#FFFFFF" d="M144.9,27.6c0-7.5,0-15,0-22.6c0.7,0.7,1.5,1.4,2.3,2c5.2,3.7,10.5,7.4,15.8,11c1.1,0.7,2.2,1.3,3.4,1.9
		c1.3,0.6,2.7,0.9,4.1,0.7c1.8-0.3,3.5-1.1,5.1-2.2c1.8-1.2,3.5-2.4,5.2-3.6c4.4-3.3,9.4-6,13.5-9.7c0,7.5,0,15,0,22.6
		c-0.3,0.6-0.4,1.3-0.9,1.8c-1,1.3-2.3,1.8-3.9,1.8c-13.3,0-26.5,0-39.8,0c-0.2,0-0.4,0-0.6,0c-1.3-0.1-2.3-0.6-3.1-1.5
		C145.4,29.1,145.1,28.4,144.9,27.6z"/>
	<path fill="#FFFFFF" d="M144.9-1.9c0-0.5,0-1,0-1.5c0.1-0.2,0.1-0.5,0.2-0.7c0.4-1.8,1.7-3,3.4-3.2c0.4-0.1,0.9-0.1,1.3-0.1
		c13.2,0,26.4,0,39.6,0c0.2,0,0.5,0,0.7,0c1.3,0.1,2.2,0.6,3.1,1.5c0.6,0.6,0.8,1.4,1.1,2.1c0,0.5,0,1,0,1.5
		c-0.3,0.9-0.5,1.8-0.9,2.6c-1,1.8-2.4,3.2-4.1,4.4c-4.6,3.2-9.1,6.4-13.8,9.6c-1.1,0.8-2.3,1.5-3.5,2.2c-1.5,0.9-3.2,0.9-4.8,0
		c-0.7-0.4-1.5-0.8-2.1-1.3c-5.2-3.5-10.3-7-15.5-10.6C147.4,2.9,145.6,0.9,144.9-1.9z"/>
</g>
</svg>
