<?xml version="1.0" encoding="utf-8"?>
<!-- Generator: Adobe Illustrator 19.0.1, SVG Export Plug-In . SVG Version: 6.00 Build 0)  -->
<!DOCTYPE svg PUBLIC "-//W3C//DTD SVG 1.1//EN" "http://www.w3.org/Graphics/SVG/1.1/DTD/svg11.dtd">
<svg version="1.1" id="Warstwa_1" xmlns="http://www.w3.org/2000/svg" xmlns:xlink="http://www.w3.org/1999/xlink" x="0px" y="0px"
	 viewBox="0 0 32.3 27" enable-background="new 0 0 32.3 27" xml:space="preserve">
<g>
	<path fill="#039be5" d="M17.3,0.8C9.6,0.8,3.4,6.6,3.4,13.7c0,1.9,0.5,3.8,1.3,5.4l-3.3,6c-0.2,0.3-0.2,0.7,0.1,1
		c0.2,0.2,0.5,0.4,0.7,0.4c0.1,0,0.2,0,0.2,0l7.2-2c2.2,1.3,4.8,2.1,7.7,2.1c7.7,0,13.9-5.8,13.9-12.9C31.3,6.6,25,0.8,17.3,0.8z
		 M17.3,20.3c-0.8,0-1.4-0.6-1.4-1.4s0.6-1.4,1.4-1.4s1.4,0.6,1.4,1.4S18.1,20.3,17.3,20.3z M18.8,13.7c-0.2,0.1-0.3,0.2-0.4,0.3
		v1.4c0,0.6-0.5,1.1-1.1,1.1s-1.1-0.5-1.1-1.1v-1.6c0-1,0.8-1.6,1.3-1.9c0.6-0.4,1-0.7,1-1.5c0-0.7-0.6-1.2-1.2-1.2
		c-0.6,0-1.2,0.6-1.2,1.2s-0.5,1.1-1.1,1.1s-1.1-0.5-1.1-1.1c0-1.9,1.5-3.4,3.4-3.4s3.4,1.5,3.4,3.4C20.7,12.4,19.5,13.2,18.8,13.7z
		"/>
</g>
</svg>
