<?xml version="1.0" encoding="utf-8"?>
<!-- Generator: Adobe Illustrator 19.0.1, SVG Export Plug-In . SVG Version: 6.00 Build 0)  -->
<!DOCTYPE svg PUBLIC "-//W3C//DTD SVG 1.1//EN" "http://www.w3.org/Graphics/SVG/1.1/DTD/svg11.dtd">
<svg version="1.1" id="Warstwa_1" xmlns="http://www.w3.org/2000/svg" xmlns:xlink="http://www.w3.org/1999/xlink" x="0px" y="0px"
	 viewBox="0 0 118.7 86" enable-background="new 0 0 118.7 86" xml:space="preserve">
<g>
	<path fill="#FFFFFF" d="M67.3,0h-19c-5.2,0-9.4,4.2-9.4,9.4v6.9h18.9c6.3,0,11.5,5.1,11.5,11.5c0,6.3-5.1,11.5-11.5,11.5H38.9v37.5
		c0,5.2,4.2,9.4,9.4,9.4h19c5.2,0,9.4-4.2,9.4-9.4V9.4C76.7,4.2,72.5,0,67.3,0L67.3,0z M61.9,60.9v5.3c0,2.1-1.7,3.8-3.8,3.8
		c-2.1,0-3.8-1.7-3.8-3.8v-5.3c-1.5-1.1-2.5-2.9-2.5-5c0-3.5,2.8-6.3,6.3-6.3c3.5,0,6.3,2.8,6.3,6.3C64.4,58,63.4,59.8,61.9,60.9
		L61.9,60.9z M61.9,60.9"/>
	<path fill="#FFFFFF" d="M65,27.7c0-4-3.2-7.2-7.2-7.2H7.2c-4,0-7.2,3.2-7.2,7.2c0,4,3.2,7.2,7.2,7.2h50.6
		C61.8,34.9,65,31.7,65,27.7L65,27.7z M65,27.7"/>
</g>
</svg>
