<?xml version="1.0" encoding="UTF-8" standalone="no"?>
<!-- Created with Inkscape (http://www.inkscape.org/) -->

<svg
   xmlns:dc="http://purl.org/dc/elements/1.1/"
   xmlns:cc="http://creativecommons.org/ns#"
   xmlns:rdf="http://www.w3.org/1999/02/22-rdf-syntax-ns#"
   xmlns:svg="http://www.w3.org/2000/svg"
   xmlns="http://www.w3.org/2000/svg"
   version="1.1"
   width="430.117"
   height="430.11801"
   viewBox="0 0 430.117 430.118"
   id="Capa_1"
   xml:space="preserve"><metadata
     id="metadata40"><rdf:RDF><cc:Work
         rdf:about=""><dc:format>image/svg+xml</dc:format><dc:type
           rdf:resource="http://purl.org/dc/dcmitype/StillImage" /><dc:title></dc:title></cc:Work></rdf:RDF></metadata><defs
     id="defs38" /><g
     id="g3"
     style="fill:#ffffff"><path
       d="M 398.355,0 H 31.782 C 14.229,0 0.002,13.793 0.002,30.817 v 368.471 c 0,17.025 14.232,30.83 31.78,30.83 h 366.573 c 17.549,0 31.76,-13.814 31.76,-30.83 V 30.817 C 430.115,13.798 415.904,0 398.355,0 z M 130.4,360.038 H 65.413 V 165.845 H 130.4 V 360.038 z M 97.913,139.315 h -0.437 c -21.793,0 -35.92,-14.904 -35.92,-33.563 0,-19.035 14.542,-33.535 36.767,-33.535 22.227,0 35.899,14.496 36.331,33.535 0,18.663 -14.099,33.563 -36.741,33.563 z m 266.746,220.723 h -64.966 v -103.9 c 0,-26.107 -9.413,-43.921 -32.907,-43.921 -17.973,0 -28.642,12.018 -33.327,23.621 -1.736,4.144 -2.166,9.94 -2.166,15.728 v 108.468 h -64.954 c 0,0 0.85,-175.979 0,-194.192 h 64.964 v 27.531 c 8.624,-13.229 24.035,-32.1 58.534,-32.1 42.76,0 74.822,27.739 74.822,87.414 V 360.038 z M 230.883,193.99 c 0.111,-0.182 0.266,-0.401 0.42,-0.614 v 0.614 h -0.42 z"
       id="LinkedIn__x28_alt_x29_"
       style="fill:#ffffff" /></g><g
     id="g6"
     style="fill:#ffffff" /><g
     id="g8"
     style="fill:#ffffff" /><g
     id="g10"
     style="fill:#ffffff" /><g
     id="g12"
     style="fill:#ffffff" /><g
     id="g14"
     style="fill:#ffffff" /><g
     id="g16"
     style="fill:#ffffff" /><g
     id="g18"
     style="fill:#ffffff" /><g
     id="g20"
     style="fill:#ffffff" /><g
     id="g22"
     style="fill:#ffffff" /><g
     id="g24"
     style="fill:#ffffff" /><g
     id="g26"
     style="fill:#ffffff" /><g
     id="g28"
     style="fill:#ffffff" /><g
     id="g30"
     style="fill:#ffffff" /><g
     id="g32"
     style="fill:#ffffff" /><g
     id="g34"
     style="fill:#ffffff" /></svg>