<?xml version="1.0" encoding="UTF-8" standalone="no"?>
<!-- Created with Inkscape (http://www.inkscape.org/) -->

<svg
   xmlns:dc="http://purl.org/dc/elements/1.1/"
   xmlns:cc="http://creativecommons.org/ns#"
   xmlns:rdf="http://www.w3.org/1999/02/22-rdf-syntax-ns#"
   xmlns:svg="http://www.w3.org/2000/svg"
   xmlns="http://www.w3.org/2000/svg"
   xmlns:sodipodi="http://sodipodi.sourceforge.net/DTD/sodipodi-0.dtd"
   xmlns:inkscape="http://www.inkscape.org/namespaces/inkscape"
   version="1.1"
   width="32"
   height="32"
   viewBox="0 0 32 32"
   id="svg2"
   inkscape:version="0.48.4 r9939"
   sodipodi:docname="social.svg">
  <sodipodi:namedview
     pagecolor="#ffffff"
     bordercolor="#666666"
     borderopacity="1"
     objecttolerance="10"
     gridtolerance="10"
     guidetolerance="10"
     inkscape:pageopacity="0"
     inkscape:pageshadow="2"
     inkscape:window-width="1080"
     inkscape:window-height="1892"
     id="namedview30"
     showgrid="false"
     inkscape:zoom="2.7547702"
     inkscape:cx="76.59356"
     inkscape:cy="14.27271"
     inkscape:window-x="0"
     inkscape:window-y="0"
     inkscape:window-maximized="1"
     inkscape:current-layer="svg2" />
  <metadata
     id="metadata18">
    <rdf:RDF>
      <cc:Work
         rdf:about="">
        <dc:format>image/svg+xml</dc:format>
        <dc:type
           rdf:resource="http://purl.org/dc/dcmitype/StillImage" />
        <dc:title></dc:title>
      </cc:Work>
    </rdf:RDF>
  </metadata>
  <defs
     id="defs16" />
  <g
     transform="matrix(1.9974248,0,0,1.9974248,0,0.0412032)"
     id="g3045"
     style="fill:#ffffff">
    <g
       id="g3003"
       style="fill:#ffffff">
      <g
         id="g3005"
         style="fill:#ffffff">
        <path
           d="M 8,0 C 3.582,0 0,3.582 0,8 c 0,4.418 3.582,8 8,8 4.418,0 8,-3.582 8,-8 C 16,3.581 12.418,0 8,0 z M 6,11.875 H 4 v -7 h 2 v 7 z M 5.062,4.446 C 4.544,4.446 4.125,4.026 4.125,3.508 4.125,2.99 4.545,2.57 5.062,2.57 5.58,2.571 6,2.991 6,3.508 6,4.026 5.58,4.446 5.062,4.446 z M 13,11.875 H 11 V 7.547 C 11,7.04 10.855,6.685 10.232,6.685 9.199,6.685 9,7.547 9,7.547 v 4.328 H 7 v -7 h 2 v 0.669 c 0.286,-0.219 1,-0.668 2,-0.668 0.648,0 2,0.388 2,2.732 v 4.267 z"
           id="path3007"
           style="fill:#ffffff"
           inkscape:connector-curvature="0" />
      </g>
    </g>
    <g
       id="g3009"
       style="fill:#ffffff" />
    <g
       id="g3011"
       style="fill:#ffffff" />
    <g
       id="g3013"
       style="fill:#ffffff" />
    <g
       id="g3015"
       style="fill:#ffffff" />
    <g
       id="g3017"
       style="fill:#ffffff" />
    <g
       id="g3019"
       style="fill:#ffffff" />
    <g
       id="g3021"
       style="fill:#ffffff" />
    <g
       id="g3023"
       style="fill:#ffffff" />
    <g
       id="g3025"
       style="fill:#ffffff" />
    <g
       id="g3027"
       style="fill:#ffffff" />
    <g
       id="g3029"
       style="fill:#ffffff" />
    <g
       id="g3031"
       style="fill:#ffffff" />
    <g
       id="g3033"
       style="fill:#ffffff" />
    <g
       id="g3035"
       style="fill:#ffffff" />
    <g
       id="g3037"
       style="fill:#ffffff" />
  </g>
</svg>
