<?xml version="1.0" encoding="UTF-8" standalone="no"?>
<!-- Created with Inkscape (http://www.inkscape.org/) -->

<svg
   xmlns:dc="http://purl.org/dc/elements/1.1/"
   xmlns:cc="http://creativecommons.org/ns#"
   xmlns:rdf="http://www.w3.org/1999/02/22-rdf-syntax-ns#"
   xmlns:svg="http://www.w3.org/2000/svg"
   xmlns="http://www.w3.org/2000/svg"
   version="1.1"
   width="100"
   height="20"
   viewBox="0 0 100 20.4466"
   id="svg_koda_logo"
   xml:space="preserve"><metadata
     id="metadata9"><rdf:RDF><cc:Work
         rdf:about=""><dc:format>image/svg+xml</dc:format><dc:type
           rdf:resource="http://purl.org/dc/dcmitype/StillImage" /><dc:title></dc:title></cc:Work></rdf:RDF></metadata><defs
     id="defs7" /><path
     d="M 43.571436,2.6382683 C 41.952496,0.87942826 39.61403,-1.739122e-6 36.556034,-1.739122e-6 c -3.057995,0 -5.396462,0.879429999122 -7.035387,2.618290039122 -1.638927,1.73886 -2.458388,4.27719 -2.458388,7.5750297 0,3.29784 0.819461,5.83618 2.438401,7.61501 1.638925,1.75885 3.957405,2.63827 7.015401,2.63827 3.038008,0 5.376474,-0.87942 7.015401,-2.63827 1.638925,-1.77883 2.438401,-4.29718 2.438401,-7.59502 0.03997,-3.2778497 -0.77949,-5.8161897 -2.398427,-7.5750397 z M 36.556034,17.228708 c -1.758847,0 -3.077981,-0.57962 -3.937418,-1.75885 -0.879424,-1.17922 -1.319136,-2.91808 -1.319136,-5.23656 0,-2.3184797 0.439712,-4.0573397 1.339122,-5.2365697 0.879424,-1.17923 2.218546,-1.77884 3.957406,-1.77884 3.497706,0 5.236568,2.33847 5.236568,7.0154097 -0.01999,4.67693 -1.778835,6.99541 -5.276542,6.99541 z M 70.553747,2.6782483 C 68.714951,0.91939826 66.156628,0.03997826 62.838805,0.03997826 H 61.279826 V 3.5776583 h 1.778833 c 3.857472,0 5.776215,2.17857 5.776215,6.5357097 0,4.45708 -2.078639,6.67563 -6.235912,6.67563 h -1.319136 v 3.55767 h 0.919398 c 3.597642,0 6.355832,-0.87943 8.234601,-2.65826 1.898755,-1.77884 2.858127,-4.33716 2.858127,-7.6949597 0.01999,-3.13794 -0.899411,-5.57634 -2.738205,-7.3152 z m -61.4197351,7.8148797 -2.8581261,3.35779 5.3365012,6.49575 h 5.47641 L 9.1340119,10.493128 z M 12.032112,0.03997826 5.1166456,8.4544583 V 14.210688 L 17.068811,0.05995826 H 12.032112 z M 4.3971174,20.326678 V 0.03997826 C 1.9587158,0.03997826 0,2.0786383 0,4.6169783 V 15.769668 c 0,2.51834 1.9787027,4.55701 4.3971174,4.55701 z m 82.7057806,-0.04 H 82.76574 L 89.661221,0.01996826 h 2.458387 c 1.339123,0 2.518349,0.85944 2.938075,2.11861004 L 99.83455,16.189368 c 0.67956,2.01868 -0.819461,4.1173 -2.938073,4.1173 L 93.078979,8.2145983 c -0.219855,-0.71953 -0.439711,-1.53899 -0.659566,-2.49836 -0.219857,-0.95937 -0.359765,-1.59896 -0.419726,-1.97871 -0.09993,0.85944 -0.439711,2.33847 -1.039318,4.47707 L 87.102898,20.286698 z M 57.142539,3.5776583 h 4.137287 V 16.788998 h -4.137287 z"
     id="path3"
     style="fill:#ffffff" /></svg>