<?xml version="1.0" encoding="utf-8"?>
<!-- Generator: Adobe Illustrator 19.0.1, SVG Export Plug-In . SVG Version: 6.00 Build 0)  -->
<!DOCTYPE svg PUBLIC "-//W3C//DTD SVG 1.1//EN" "http://www.w3.org/Graphics/SVG/1.1/DTD/svg11.dtd">
<svg version="1.1" id="Warstwa_1" xmlns="http://www.w3.org/2000/svg" xmlns:xlink="http://www.w3.org/1999/xlink" x="0px" y="0px"
	 viewBox="0 0 512 512" style="enable-background:new 0 0 512 512;" xml:space="preserve">
<path d="M346.2,330.5c16.5-20.2,26.5-46,26.5-74.1c0-64.8-52.5-117.3-117.3-117.3c-64.8,0-117.3,52.5-117.3,117.3
	c0,64.8,52.5,117.3,117.3,117.3c19.1,0,37.1-4.6,53-12.7l44.3,88.1c-29.3,14.8-62.3,23.2-97.4,23.2c-119.3,0-215.9-96.7-215.9-215.9
	c0-119.3,96.7-216,215.9-216c119.3,0,215.9,96.7,215.9,216c0,51.9-18.3,99.4-48.8,136.6l31.3,25.6c36.2-44.2,58-100.7,58-162.3
	c0-141.4-114.6-256-256-256s-256,114.6-256,256s114.6,256,256,256c53.6,0,103.3-16.5,144.4-44.6L255.8,256.4L346.2,330.5z"/>
</svg>
