<?xml version="1.0" encoding="UTF-8" standalone="no"?>
<!-- Created with Inkscape (http://www.inkscape.org/) -->

<svg
   xmlns:dc="http://purl.org/dc/elements/1.1/"
   xmlns:cc="http://creativecommons.org/ns#"
   xmlns:rdf="http://www.w3.org/1999/02/22-rdf-syntax-ns#"
   xmlns:svg="http://www.w3.org/2000/svg"
   xmlns="http://www.w3.org/2000/svg"
   xmlns:sodipodi="http://sodipodi.sourceforge.net/DTD/sodipodi-0.dtd"
   xmlns:inkscape="http://www.inkscape.org/namespaces/inkscape"
   version="1.1"
   width="240"
   height="100"
   viewBox="0 0 634.17 634.17"
   id="Capa_1"
   xml:space="preserve"
   inkscape:version="0.48.4 r9939"
   sodipodi:docname="note.svg"><sodipodi:namedview
     pagecolor="#ffffff"
     bordercolor="#666666"
     borderopacity="1"
     objecttolerance="10"
     gridtolerance="10"
     guidetolerance="10"
     inkscape:pageopacity="0"
     inkscape:pageshadow="2"
     inkscape:window-width="1920"
     inkscape:window-height="1026"
     id="namedview23"
     showgrid="false"
     inkscape:zoom="0.97689195"
     inkscape:cx="17.03897"
     inkscape:cy="387.25893"
     inkscape:window-x="1080"
     inkscape:window-y="840"
     inkscape:window-maximized="1"
     inkscape:current-layer="Capa_1" /><metadata
     id="metadata43"><rdf:RDF><cc:Work
         rdf:about=""><dc:format>image/svg+xml</dc:format><dc:type
           rdf:resource="http://purl.org/dc/dcmitype/StillImage" /><dc:title /></cc:Work></rdf:RDF></metadata><defs
     id="defs41" /><g
     id="g3"
     style="fill:#ffffff"
     transform="translate(0,83.443791)"><path
       d="m 471.048,29.209 h -26.19 V 17.417 c 0,-8.923 -7.227,-16.157 -16.154,-16.157 -8.929,0 -16.155,7.233 -16.155,16.157 v 11.792 h -22.61 V 17.417 c 0,-8.923 -7.244,-16.157 -16.154,-16.157 -8.915,0 -16.159,7.233 -16.159,16.157 V 29.209 H 335.033 V 17.417 c 0,-8.923 -7.24,-16.157 -16.155,-16.157 -8.915,0 -16.159,7.233 -16.159,16.157 V 29.209 H 280.113 V 17.417 C 280.113,8.494 272.886,1.26 263.954,1.26 255.025,1.26 247.8,8.493 247.8,17.417 V 29.209 H 225.189 V 17.417 c 0,-8.923 -7.24,-16.157 -16.155,-16.157 -8.914,0 -16.159,7.233 -16.159,16.157 v 11.792 h -24.19 c -6.686,0 -12.114,5.428 -12.114,12.119 v 168.027 l 24.232,-24.233 V 53.443 h 12.072 v 11.473 c 0,8.924 7.245,16.157 16.159,16.157 8.915,0 16.155,-7.233 16.155,-16.157 V 53.443 H 247.8 v 11.473 c 0,8.924 7.226,16.157 16.154,16.157 8.932,0 16.159,-7.233 16.159,-16.157 V 53.443 h 22.606 v 11.473 c 0,8.924 7.244,16.157 16.159,16.157 8.915,0 16.155,-7.233 16.155,-16.157 V 53.443 h 22.593 v 11.473 c 0,8.924 7.244,16.157 16.159,16.157 8.91,0 16.154,-7.233 16.154,-16.157 V 53.443 h 22.61 v 11.473 c 0,8.924 7.227,16.157 16.155,16.157 8.928,0 16.154,-7.233 16.154,-16.157 V 53.443 h 14.076 V 457.669 H 180.804 V 358.665 L 156.571,382.9 v 86.887 c 0,6.69 5.428,12.118 12.114,12.118 h 302.363 c 6.69,0 12.118,-5.428 12.118,-12.118 V 41.328 c -10e-4,-6.691 -5.428,-12.119 -12.118,-12.119 z"
       id="path5"
       style="fill:#ffffff"
       inkscape:connector-curvature="0" /><path
       d="m 305.638,201.648 23.226,-64.314 c 1.59,-4.427 0.488,-9.365 -2.839,-12.686 -3.315,-3.33 -8.268,-4.427 -12.686,-2.834 l -64.309,23.249 c -1.674,0.607 -3.189,1.571 -2.453,2.833 L 14.051,380.423 C 4.289,388.194 0,398.52 0,409.508 c 0,10.991 4.289,21.332 12.082,29.11 7.763,7.779 18.113,12.063 29.098,12.063 11.01,0 21.33,-4.285 31.123,-12.063 l 232.496,-232.52 c -0.739,-1.254 0.241,-2.778 0.839,-4.45 z M 53.168,421.485 c -6.407,6.405 -17.545,6.405 -23.952,0 -3.217,-3.203 -4.985,-7.463 -4.985,-11.976 0,-4.513 1.768,-8.755 4.954,-11.949 l 9.327,-9.325 23.948,23.948 -9.292,9.302 z M 75.883,400.76 51.935,376.81 258.005,170.748 281.953,194.692 75.883,400.76 z m 211.926,-221.065 -16.819,-16.796 18.778,-6.784 4.812,4.805 -6.771,18.775 z"
       id="path7"
       style="fill:#ffffff"
       inkscape:connector-curvature="0" /></g><g
     id="g9"
     style="fill:#ffffff"
     transform="translate(0,83.443791)" /><g
     id="g11"
     style="fill:#ffffff"
     transform="translate(0,83.443791)" /><g
     id="g13"
     style="fill:#ffffff"
     transform="translate(0,83.443791)" /><g
     id="g15"
     style="fill:#ffffff"
     transform="translate(0,83.443791)" /><g
     id="g17"
     style="fill:#ffffff"
     transform="translate(0,83.443791)" /><g
     id="g19"
     style="fill:#ffffff"
     transform="translate(0,83.443791)" /><g
     id="g21"
     style="fill:#ffffff"
     transform="translate(0,83.443791)" /><g
     id="g23"
     style="fill:#ffffff"
     transform="translate(0,83.443791)" /><g
     id="g25"
     style="fill:#ffffff"
     transform="translate(0,83.443791)" /><g
     id="g27"
     style="fill:#ffffff"
     transform="translate(0,83.443791)" /><g
     id="g29"
     style="fill:#ffffff"
     transform="translate(0,83.443791)" /><g
     id="g31"
     style="fill:#ffffff"
     transform="translate(0,83.443791)" /><g
     id="g33"
     style="fill:#ffffff"
     transform="translate(0,83.443791)" /><g
     id="g35"
     style="fill:#ffffff"
     transform="translate(0,83.443791)" /><g
     id="g37"
     style="fill:#ffffff"
     transform="translate(0,83.443791)" /></svg>