<?xml version="1.0" encoding="UTF-8" standalone="no"?>
<!-- Generator: Adobe Illustrator 16.0.0, SVG Export Plug-In . SVG Version: 6.00 Build 0)  -->

<svg
   xmlns:dc="http://purl.org/dc/elements/1.1/"
   xmlns:cc="http://creativecommons.org/ns#"
   xmlns:rdf="http://www.w3.org/1999/02/22-rdf-syntax-ns#"
   xmlns:svg="http://www.w3.org/2000/svg"
   xmlns="http://www.w3.org/2000/svg"
   xmlns:sodipodi="http://sodipodi.sourceforge.net/DTD/sodipodi-0.dtd"
   xmlns:inkscape="http://www.inkscape.org/namespaces/inkscape"
   version="1.1"
   id="Capa_1"
   x="0px"
   y="0px"
   width="240"
   height="100"
   viewBox="0 0 36.764 36.765"
   style="enable-background:new 0 0 36.764 36.765;"
   xml:space="preserve"
   inkscape:version="0.48.4 r9939"
   sodipodi:docname="q&amp;a.svg"><metadata
     id="metadata41"><rdf:RDF><cc:Work
         rdf:about=""><dc:format>image/svg+xml</dc:format><dc:type
           rdf:resource="http://purl.org/dc/dcmitype/StillImage" /><dc:title></dc:title></cc:Work></rdf:RDF></metadata><defs
     id="defs39" /><sodipodi:namedview
     pagecolor="#ffffff"
     bordercolor="#666666"
     borderopacity="1"
     objecttolerance="10"
     gridtolerance="10"
     guidetolerance="10"
     inkscape:pageopacity="0"
     inkscape:pageshadow="2"
     inkscape:window-width="1920"
     inkscape:window-height="1026"
     id="namedview37"
     showgrid="false"
     inkscape:zoom="12.838297"
     inkscape:cx="17.386031"
     inkscape:cy="18.386462"
     inkscape:window-x="1080"
     inkscape:window-y="840"
     inkscape:window-maximized="1"
     inkscape:current-layer="Capa_1" /><g
     id="g3"
     style="fill:#ffffff"
     transform="matrix(0.70456496,0,0,0.70456496,5.4306185,5.4306051)"><path
       d="M 31.023,16.178 C 30.127,14.452 31.402,13.419 31.488,12.527 31.884,8.412 30.494,5.893 28.605,3.9 25.484,0.599 21.471,-0.022 18.844,0 12.119,0.049 9.397,2.183 7.338,4.479 3.055,9.26 3.961,13.457 3.961,13.457 c 0.102,2.489 3.537,7.021 3.537,7.021 2.738,3.937 1.393,6.974 1.393,6.974 5.529,1.243 10.062,9.312 10.062,9.312 0.2,-1.195 2.857,-6.24 2.857,-6.24 1.11,-1.396 2.976,-0.905 3.981,-0.782 2.887,0.355 3.604,-0.494 3.604,-0.494 0.631,-0.386 0.332,-1.992 0.332,-1.992 -0.231,-0.831 0.146,-1.237 0.381,-1.562 0.633,-0.884 0.267,-1.294 0.267,-1.294 -0.199,-0.251 -0.065,-0.383 -0.065,-0.383 0.696,-0.232 0.747,-0.613 0.747,-0.613 l -0.018,-1.278 c -0.115,-0.878 0.282,-0.932 0.282,-0.932 1.595,-0.029 1.56,-1.062 1.56,-1.062 0.065,-0.568 -1.858,-3.954 -1.858,-3.954 z m -12.575,7.415 c -1.32,0 -2.218,-0.972 -2.218,-2.27 0,-1.319 0.923,-2.268 2.218,-2.268 1.347,0 2.22,0.946 2.245,2.268 10e-4,1.298 -0.899,2.27 -2.245,2.27 z m 3.017,-9.274 c -0.923,1.022 -1.296,1.994 -1.271,3.115 v 0.449 H 16.88 l -0.025,-0.647 c -0.075,-1.271 0.349,-2.566 1.47,-3.914 0.8,-0.946 1.447,-1.744 1.447,-2.592 0,-0.873 -0.574,-1.445 -1.82,-1.496 -0.822,0 -1.819,0.301 -2.468,0.748 L 14.637,7.266 c 0.896,-0.523 2.393,-1.021 4.162,-1.021 3.291,0 4.786,1.818 4.786,3.888 -0.001,1.894 -1.172,3.141 -2.12,4.186 z"
       id="path5"
       style="fill:#ffffff"
       inkscape:connector-curvature="0" /></g><g
     id="g7" /><g
     id="g9" /><g
     id="g11" /><g
     id="g13" /><g
     id="g15" /><g
     id="g17" /><g
     id="g19" /><g
     id="g21" /><g
     id="g23" /><g
     id="g25" /><g
     id="g27" /><g
     id="g29" /><g
     id="g31" /><g
     id="g33" /><g
     id="g35" /></svg>