<?xml version="1.0" encoding="utf-8"?>
<!-- Generator: Adobe Illustrator 18.1.1, SVG Export Plug-In . SVG Version: 6.00 Build 0)  -->
<svg version="1.1" id="Warstwa_1" xmlns="http://www.w3.org/2000/svg" xmlns:xlink="http://www.w3.org/1999/xlink" x="0px" y="0px"
	 viewBox="151 40.5 58 45" enable-background="new 151 40.5 58 45" xml:space="preserve">
<g>
	<g>
		<path fill="#FDFEFF" d="M178.9,64c6.2,0,8.5-6.2,9-11.4c0.8-6.2-2.2-11-9-11s-9.8,4.8-9,11C170.4,57.8,172.7,64,178.9,64L178.9,64
			z"/>
		<path fill="#FDFEFF" d="M192.5,66.6c0.2,0,0.3,0,0.6,0c-0.3-0.5-0.6-0.8-1-1.1c-1.1-1-2.7-1.1-4.2-1.8c-0.6-0.3-1.3-0.5-1.8-0.8
			c-1.9,2.1-4.3,3.2-7.2,3.2s-5.3-1.1-7.2-3.2c-0.5,0.3-1.1,0.5-1.8,0.8c-1.4,0.5-2.9,0.8-4.2,1.8c-2.1,1.6-2.6,5-3,7.4
			c-0.3,1.9-0.6,4-0.6,5.9c0,1.6,0.6,1.8,1.9,2.2c1.6,0.6,3.2,1,5,1.4c3.2,0.6,6.6,1.3,9.9,1.3c1.6,0,3.2-0.2,4.8-0.3
			c-1.1-1.8-1.9-3.8-1.9-6.1C181.9,71.4,186.6,66.6,192.5,66.6L192.5,66.6z"/>
		<path fill="#FDFEFF" d="M192.5,68.7c-4.6,0-8.5,3.8-8.5,8.5s3.8,8.5,8.5,8.5c4.6,0,8.5-3.8,8.5-8.5S197.3,68.7,192.5,68.7
			L192.5,68.7z M196.2,78.7h-2.2V81c0,0.8-0.6,1.4-1.4,1.4s-1.4-0.6-1.4-1.4v-2.2h-2.2c-0.8,0-1.4-0.6-1.4-1.4
			c0-0.8,0.6-1.4,1.4-1.4h2.2v-2.2c0-0.8,0.6-1.4,1.4-1.4s1.4,0.6,1.4,1.4v2.2h2.2c0.8,0,1.4,0.6,1.4,1.4
			C197.8,77.9,197,78.7,196.2,78.7L196.2,78.7z"/>
	</g>
</g>
</svg>
