<?xml version="1.0" encoding="UTF-8" standalone="no"?>
<!-- Created with Inkscape (http://www.inkscape.org/) -->

<svg
   xmlns:dc="http://purl.org/dc/elements/1.1/"
   xmlns:cc="http://creativecommons.org/ns#"
   xmlns:rdf="http://www.w3.org/1999/02/22-rdf-syntax-ns#"
   xmlns:svg="http://www.w3.org/2000/svg"
   xmlns="http://www.w3.org/2000/svg"
   xmlns:sodipodi="http://sodipodi.sourceforge.net/DTD/sodipodi-0.dtd"
   xmlns:inkscape="http://www.inkscape.org/namespaces/inkscape"
   version="1.1"
   width="32"
   height="32"
   viewBox="0 0 32 32"
   id="svg2"
   inkscape:version="0.48.4 r9939"
   sodipodi:docname="linkedin.svg">
  <sodipodi:namedview
     pagecolor="#ffffff"
     bordercolor="#666666"
     borderopacity="1"
     objecttolerance="10"
     gridtolerance="10"
     guidetolerance="10"
     inkscape:pageopacity="0"
     inkscape:pageshadow="2"
     inkscape:window-width="1080"
     inkscape:window-height="1892"
     id="namedview30"
     showgrid="false"
     inkscape:zoom="2.7547702"
     inkscape:cx="57.535709"
     inkscape:cy="14.27271"
     inkscape:window-x="0"
     inkscape:window-y="0"
     inkscape:window-maximized="1"
     inkscape:current-layer="svg2" />
  <metadata
     id="metadata18">
    <rdf:RDF>
      <cc:Work
         rdf:about="">
        <dc:format>image/svg+xml</dc:format>
        <dc:type
           rdf:resource="http://purl.org/dc/dcmitype/StillImage" />
        <dc:title></dc:title>
      </cc:Work>
    </rdf:RDF>
  </metadata>
  <defs
     id="defs16" />
  <path
     d="M 15.999,32 C 7.163,32 0,24.836 0,16 0,7.163 7.163,-0.001 15.999,-0.001 c 8.837,0 16,7.164 16,16.001 0,8.836 -7.163,16 -16,16 z M 12.429,5.426 c 0,0 -0.825,3.17 -0.825,3.17 0,0 -0.858,-3.17 -0.858,-3.17 0,0 -1.272,0 -1.272,0 0.255,0.748 0.52,1.5 0.775,2.249 0.388,1.127 0.63,1.976 0.739,2.555 0,0 0,3.27 0,3.27 0,0 1.209,0 1.209,0 0,0 0,-3.27 0,-3.27 0,0 1.454,-4.804 1.454,-4.804 0,0 -1.222,0 -1.222,0 z m 4.453,4.019 c 0,-0.643 -0.11,-1.114 -0.338,-1.418 C 16.242,7.616 15.818,7.41 15.272,7.41 c -0.544,0 -0.968,0.206 -1.27,0.617 -0.231,0.305 -0.341,0.775 -0.341,1.418 0,0 0,2.107 0,2.107 0,0.639 0.11,1.114 0.341,1.415 0.302,0.41 0.726,0.616 1.27,0.616 0.546,0 0.97,-0.206 1.272,-0.616 0.228,-0.301 0.338,-0.775 0.338,-1.415 0,0 0,-2.107 0,-2.107 z m 4.032,-1.962 c 0,0 -1.091,0 -1.091,0 0,0 0,4.599 0,4.599 -0.241,0.341 -0.47,0.51 -0.688,0.51 -0.146,0 -0.232,-0.086 -0.256,-0.255 -0.013,-0.036 -0.013,-0.168 -0.013,-0.424 0,0 0,-4.43 0,-4.43 0,0 -1.087,0 -1.087,0 0,0 -0.001,0 -0.001,0 0,0 0,4.758 0,4.758 0,0.425 0.037,0.712 0.097,0.895 0.109,0.304 0.352,0.447 0.703,0.447 0.398,0 0.811,-0.242 1.245,-0.739 0,0 0,0.656 0,0.656 0,0 1.091,0 1.091,0 0,0 0,-6.017 0,-6.017 z m 3.702,8.65 c -0.218,-0.95 -0.995,-1.65 -1.929,-1.755 -2.214,-0.247 -4.455,-0.248 -6.685,-0.247 -2.231,-10e-4 -4.471,0 -6.685,0.247 -0.934,0.105 -1.71,0.805 -1.929,1.755 -0.311,1.352 -0.314,2.827 -0.314,4.219 0,1.392 0,2.868 0.311,4.22 0.218,0.95 0.994,1.65 1.929,1.754 2.213,0.247 4.454,0.249 6.684,0.247 2.232,0.002 4.471,0 6.685,-0.247 0.934,-0.104 1.711,-0.805 1.929,-1.754 0.311,-1.352 0.313,-2.828 0.313,-4.22 0,-1.392 0.002,-2.867 -0.309,-4.219 z m -1.297,7.35 c -0.298,0.433 -0.741,0.646 -1.304,0.646 -0.564,0 -0.994,-0.204 -1.306,-0.61 -0.229,-0.299 -0.346,-0.768 -0.346,-1.4 0,0 0,-2.086 0,-2.086 0,-0.636 0.104,-1.102 0.333,-1.403 0.312,-0.408 0.741,-0.61 1.292,-0.61 0.542,0 0.971,0.203 1.272,0.61 0.227,0.301 0.334,0.767 0.334,1.403 0,0 0,1.233 0,1.233 0,0 -2.157,0 -2.157,0 0,0 0,1.056 0,1.056 0,0.551 0.181,0.826 0.551,0.826 0.266,0 0.421,-0.145 0.482,-0.433 0.01,-0.059 0.024,-0.298 0.024,-0.731 0,0 1.1,0 1.1,0 0,0 0,0.157 0,0.157 0,0.348 -0.013,0.588 -0.023,0.696 -0.036,0.238 -0.121,0.455 -0.252,0.646 z m -1.882,-3.115 c 0,0 1.079,0 1.079,0 0,0 0,-0.551 0,-0.551 0,-0.551 -0.18,-0.826 -0.538,-0.826 -0.36,0 -0.541,0.275 -0.541,0.826 0,0 0,0.551 0,0.551 z m -2.885,3.761 c -0.384,0 -0.754,-0.214 -1.115,-0.659 0,0 0,0.576 0,0.576 0,0 -1.078,0 -1.078,0 0,0 0,-7.99 0,-7.99 0,0 1.078,0 1.078,0 0,0 0,2.609 0,2.609 0.348,-0.428 0.719,-0.645 1.115,-0.645 0.429,0 0.719,0.226 0.862,0.672 0.073,0.24 0.11,0.633 0.11,1.197 0,0 0,2.371 0,2.371 0,0.55 -0.038,0.947 -0.11,1.199 -0.144,0.443 -0.433,0.67 -0.862,0.67 z m -0.108,-4.326 c 0,-0.537 -0.158,-0.812 -0.469,-0.812 -0.177,0 -0.358,0.084 -0.538,0.262 0,0 0,3.629 0,3.629 0.18,0.181 0.361,0.265 0.538,0.265 0.311,0 0.469,-0.265 0.469,-0.803 0,0 0,-2.541 0,-2.541 z m -4.098,3.594 c -0.429,0.492 -0.836,0.731 -1.233,0.731 -0.347,0 -0.587,-0.141 -0.695,-0.443 -0.059,-0.18 -0.096,-0.465 -0.096,-0.885 0,0 0,-4.708 0,-4.708 0,0 1.079,0 1.079,0 0,0 0,4.384 0,4.384 0,0.252 0,0.384 0.01,0.419 0.026,0.168 0.109,0.252 0.253,0.252 0.216,0 0.442,-0.166 0.682,-0.504 0,0 0,-4.55 0,-4.55 0,0 1.079,0 1.079,0 0,0 0,5.953 0,5.953 0,0 -1.079,0 -1.079,0 0,0 0,-0.649 0,-0.649 z m -3.473,0.649 c 0,0 -1.2,0 -1.2,0 0,0 0,-6.866 0,-6.866 0,0 -1.268,0 -1.268,0 0,0 0,-1.124 0,-1.124 0,0 3.761,0 3.761,0 0,0 0,1.124 0,1.124 0,0 -1.293,0 -1.293,0 0,0 0,6.866 0,6.866 z m 4.399,-11.454 c -0.352,0 -0.521,-0.278 -0.521,-0.835 0,0 0,-2.531 0,-2.531 0,-0.557 0.169,-0.834 0.521,-0.834 0.351,0 0.52,0.277 0.52,0.834 0,0 0,2.531 0,2.531 0,0.556 -0.169,0.835 -0.52,0.835 z"
     id="path-3"
     style="fill:#ffffff;fill-rule:evenodd"
     inkscape:connector-curvature="0" />
</svg>
