<?xml version="1.0" encoding="utf-8"?>
<!-- Generator: Adobe Illustrator 15.1.0, SVG Export Plug-In . SVG Version: 6.00 Build 0)  -->
<!DOCTYPE svg PUBLIC "-//W3C//DTD SVG 1.1//EN" "http://www.w3.org/Graphics/SVG/1.1/DTD/svg11.dtd">
<svg version="1.1" id="Layer_2" xmlns="http://www.w3.org/2000/svg" xmlns:xlink="http://www.w3.org/1999/xlink" x="0px" y="0px"
	 width="512px" height="512px" viewBox="0 0 512 512" enable-background="new 0 0 512 512" xml:space="preserve">
<g id="Quiz">
	<g>
		<path fill-rule="evenodd" clip-rule="evenodd" fill="#1B1B1B" d="M473.103,247.449l-48.57-47.055
			c32.43-10.106,56.019-39.631,56.019-74.396c0-43.105-36.205-78.168-80.703-78.168c-35.854,0-66.35,22.821-76.776,54.256
			l-50.06-48.471c-13.162-12.713-36.057-12.763-49.291,0.025l-68.335,66.2c-4.519,4.396-5.612,11.125-2.633,16.638
			c2.956,5.486,9.212,8.566,15.569,7.398c4.196-0.718,7.549-1.041,10.553-1.041c32.133,0,55.599,25.302,55.599,56.44
			c0,31.089-23.466,56.888-55.599,56.888c-32.105,0-58.204-25.799-58.204-56.888c0-2.93,0.323-6.208,1.067-10.279
			c1.117-6.085-1.961-12.219-7.647-15.074c-5.688-2.879-12.639-1.838-17.158,2.558L23.63,247.475
			c-13.508,13.16-13.508,34.566,0.026,47.773L223.77,489.08c6.582,6.357,15.322,9.838,24.633,9.838
			c9.313,0,18.053-3.48,24.658-9.884L473.151,295.2C486.659,282.041,486.659,260.635,473.103,247.449z M452.343,275.138
			l-199.99,193.781c-2.882,2.731-5.068,2.731-7.872,0.051L44.438,275.187c-2.158-2.135-2.158-5.563-0.023-7.649l49.463-47.898
			c9.435,36.948,43.952,64.982,84.997,64.982c48.299,0,84.948-38.586,84.948-85.345c0-39.779-25.725-73.226-63.915-82.39
			l44.521-43.131c2.881-2.732,5.091-2.732,7.897-0.025l71.938,69.728c4.37,4.245,11.124,5.362,16.687,2.781
			c5.61-2.584,8.938-8.344,8.243-14.355l-0.298-2.532c-0.148-1.118-0.348-2.209-0.348-3.353c0-27.437,23.042-49.76,51.3-49.76
			c28.309,0,51.352,22.324,51.352,49.76c0,27.414-23.043,49.688-51.352,49.688c-1.289,0-2.481-0.198-3.724-0.349l-2.235-0.272
			c-6.306-0.746-12.217,2.484-14.946,7.92c-2.683,5.439-1.541,11.97,2.879,16.215l70.521,68.335
			C454.525,269.624,454.525,273.052,452.343,275.138z"/>
	</g>
</g>
</svg>
