<?xml version="1.0" encoding="utf-8"?>
<!-- Generator: Adobe Illustrator 15.1.0, SVG Export Plug-In . SVG Version: 6.00 Build 0)  -->
<!DOCTYPE svg PUBLIC "-//W3C//DTD SVG 1.1//EN" "http://www.w3.org/Graphics/SVG/1.1/DTD/svg11.dtd">
<svg version="1.1" id="Layer_2" xmlns="http://www.w3.org/2000/svg" xmlns:xlink="http://www.w3.org/1999/xlink" x="0px" y="0px"
	 width="512px" height="512px" viewBox="0 0 512 512" enable-background="new 0 0 512 512" xml:space="preserve">
<g id="Master">
	<g>
		<path fill-rule="evenodd" clip-rule="evenodd" fill="#1B1B1B" d="M488.597,337.896V217.069l7.857-3.987
			c5.117-2.531,8.322-7.598,8.426-13.153c0.05-5.507-3.049-10.625-8.116-13.286L261.888,65.923c-4.704-2.48-10.415-2.48-15.12,0.025
			L13.133,186.851c-4.963,2.662-8.038,7.726-8.013,13.181c0.026,5.505,3.153,10.519,8.193,13.128l102.621,52.466
			c-1.289,2.188-2.034,4.716-2.034,7.417v126.896c0,4.24,1.887,8.323,5.221,11.219c3.387,2.843,35.821,28.118,135.014,28.118
			c98.881,0,132.169-23.882,135.633-26.621c3.668-2.79,5.736-7.079,5.736-11.579V270.872c0-2.102-0.454-4.101-1.269-5.917
			l63.143-32.043v105.097c-9.278,5.205-15.509,14.875-15.509,25.956c0,16.539,13.956,29.979,31.22,29.979
			c17.268,0,31.223-13.44,31.223-29.979C504.312,352.802,497.989,343.072,488.597,337.896z M364.284,392.498
			c-12.25,5.632-44.763,16.798-110.149,16.798c-65.801,0-97.539-11.889-109.014-17.573V280.548l101.388,51.835
			c2.302,1.24,4.86,1.809,7.419,1.809c2.481,0,4.961-0.568,7.235-1.706l103.121-52.331V392.498z M254.031,302.194L53.217,199.773
			L254.394,96.187l201.794,103.277L254.031,302.194z"/>
	</g>
</g>
</svg>
