<?xml version="1.0" encoding="utf-8"?>
<!-- Generator: Adobe Illustrator 15.1.0, SVG Export Plug-In . SVG Version: 6.00 Build 0)  -->
<!DOCTYPE svg PUBLIC "-//W3C//DTD SVG 1.1//EN" "http://www.w3.org/Graphics/SVG/1.1/DTD/svg11.dtd">
<svg version="1.1" xmlns="http://www.w3.org/2000/svg" xmlns:xlink="http://www.w3.org/1999/xlink" x="0px" y="0px" width="512px"
	 height="512px" viewBox="0 0 512 512" enable-background="new 0 0 512 512" xml:space="preserve">
<g id="Layer_2" display="none">
	<g display="inline">
		<path fill="#5E0F17" d="M224.124,287.77H81.103c-12.329,0-19.727,9.863-19.727,19.727v157.818c0,12.33,9.864,19.727,19.727,19.727
			h145.488c4.933,0,4.933-4.932,4.933-4.932V295.166C231.523,295.166,231.523,287.77,224.124,287.77L224.124,287.77z"/>
		<path fill="#5E0F17" d="M416.464,287.77H273.443c-9.863,0-7.399,9.863-7.399,9.863v182.477c0,0,0,4.932,4.937,4.932h145.482
			c12.331,0,19.729-9.863,19.729-19.727V309.961C438.659,297.633,428.794,287.77,416.464,287.77L416.464,287.77z"/>
		<path fill="#5E0F17" d="M231.523,164.475c0,0,0-7.398-7.399-7.398H56.444c-12.33,0-19.726,9.864-19.726,19.728v66.579
			c0,12.33,9.862,19.728,19.726,19.728h167.68c7.399,0,7.399-4.934,7.399-4.934V164.475z"/>
		<path fill="#5E0F17" d="M441.124,159.542H273.443c-7.399,0-7.399,4.931-7.399,4.931v93.705c0,0,0,4.932,7.399,4.932h167.681
			c12.329,0,19.727-9.864,19.727-19.728v-64.112C460.851,166.939,453.453,159.542,441.124,159.542L441.124,159.542z"/>
		<path fill="#5E0F17" d="M160.013,142.282c-9.865,0-17.261,0-24.66-2.466c-19.728-4.931-32.057-12.329-39.454-22.192
			c-7.398-9.864-9.863-22.194-7.398-36.988c4.932-24.659,22.194-39.454,46.853-39.454c4.932,0,12.33,0,17.261,2.466
			c17.262,2.466,36.989,12.329,56.716,24.659c32.058,22.193,32.058,34.522,32.058,41.92c-2.467,12.33-12.33,19.728-34.522,27.125
			C194.535,139.814,177.273,142.282,160.013,142.282L160.013,142.282z M135.354,75.704c-9.864,0-12.329,2.465-14.795,12.329
			c-2.467,7.398,0,9.864,0,12.33c2.466,4.931,9.864,7.396,19.727,9.863c4.932,0,12.329,2.466,19.728,2.466
			c14.794,0,29.59-2.466,39.453-4.932c0,0,2.467,0,0-2.466c-12.329-9.862-34.521-22.193-54.25-27.125
			C142.751,75.704,140.285,75.704,135.354,75.704L135.354,75.704z"/>
		<path fill="#5E0F17" d="M337.557,142.282L337.557,142.282c-14.795,0-32.058-2.466-46.853-4.931
			c-19.726-4.932-32.054-14.795-34.522-27.125c-2.467-7.397,0-22.193,32.059-41.92c19.727-12.33,39.454-22.193,56.714-24.659
			c7.396-2.466,12.33-2.466,17.262-2.466c27.124,0,41.92,14.795,46.853,39.454c2.465,14.795,0,27.125-7.396,36.988
			c-7.401,12.329-22.195,19.727-39.456,22.192C354.816,142.282,347.419,142.282,337.557,142.282L337.557,142.282z M298.103,102.827
			C295.636,102.827,298.103,105.292,298.103,102.827c9.863,4.932,24.658,7.397,39.454,7.397c7.398,0,14.794,0,19.728-2.466
			c9.862-2.466,17.263-4.932,19.728-9.863c0,0,2.466-2.465,0-12.33c-2.465-9.863-4.933-12.329-14.796-12.329
			c-2.464,0-7.397,0-12.329,2.466C332.626,80.633,310.433,92.963,298.103,102.827L298.103,102.827z"/>
	</g>
</g>
<g id="Layer_3">
	<g id="Artcles">
		<g>
			<path fill-rule="evenodd" clip-rule="evenodd" fill="#1B1B1B" d="M370.028,41.181H217.815c-15.279,0-27.669,12.39-27.669,27.669
				h152.189v110.578h110.722v221.206h-96.875v27.644h96.875c15.278,0,27.645-12.414,27.645-27.644v-248.85L370.028,41.181z
				 M370.028,151.784v-71.5l71.569,71.5H370.028z M65.603,96.471c-15.279,0-27.669,12.389-27.669,27.644v331.807
				c0,15.279,12.39,27.646,27.669,27.646h235.242c15.278,0,27.692-12.366,27.692-27.646V207.073L217.815,96.471H65.603z
				 M300.845,455.922H65.603V124.115h124.544v110.603h110.698V455.922z M217.815,207.073v-71.504l71.54,71.504H217.815z"/>
		</g>
	</g>
</g>
</svg>
