<?xml version="1.0" encoding="utf-8"?>
<!-- Generator: Adobe Illustrator 15.1.0, SVG Export Plug-In . SVG Version: 6.00 Build 0)  -->
<!DOCTYPE svg PUBLIC "-//W3C//DTD SVG 1.1//EN" "http://www.w3.org/Graphics/SVG/1.1/DTD/svg11.dtd">
<svg version="1.1" xmlns="http://www.w3.org/2000/svg" xmlns:xlink="http://www.w3.org/1999/xlink" x="0px" y="0px" width="512px"
	 height="512px" viewBox="0 0 512 512" enable-background="new 0 0 512 512" xml:space="preserve">
<g id="Layer_2" display="none">
	<g display="inline">
		<path fill="#5E0F17" d="M224.124,287.77H81.103c-12.329,0-19.727,9.863-19.727,19.727v157.818c0,12.33,9.864,19.727,19.727,19.727
			h145.488c4.933,0,4.933-4.932,4.933-4.932V295.166C231.523,295.166,231.523,287.77,224.124,287.77L224.124,287.77z"/>
		<path fill="#5E0F17" d="M416.464,287.77H273.443c-9.863,0-7.399,9.863-7.399,9.863v182.477c0,0,0,4.932,4.937,4.932h145.482
			c12.331,0,19.729-9.863,19.729-19.727V309.961C438.659,297.633,428.794,287.77,416.464,287.77L416.464,287.77z"/>
		<path fill="#5E0F17" d="M231.523,164.475c0,0,0-7.398-7.399-7.398H56.444c-12.33,0-19.726,9.864-19.726,19.728v66.579
			c0,12.33,9.862,19.728,19.726,19.728h167.68c7.399,0,7.399-4.934,7.399-4.934V164.475z"/>
		<path fill="#5E0F17" d="M441.124,159.542H273.443c-7.399,0-7.399,4.931-7.399,4.931v93.705c0,0,0,4.932,7.399,4.932h167.681
			c12.329,0,19.727-9.864,19.727-19.728v-64.112C460.851,166.939,453.453,159.542,441.124,159.542L441.124,159.542z"/>
		<path fill="#5E0F17" d="M160.013,142.282c-9.865,0-17.261,0-24.66-2.466c-19.728-4.931-32.057-12.329-39.454-22.192
			c-7.398-9.864-9.863-22.194-7.398-36.988c4.932-24.659,22.194-39.454,46.853-39.454c4.932,0,12.33,0,17.261,2.466
			c17.262,2.466,36.989,12.329,56.716,24.659c32.058,22.193,32.058,34.522,32.058,41.92c-2.467,12.33-12.33,19.728-34.522,27.125
			C194.535,139.814,177.273,142.282,160.013,142.282L160.013,142.282z M135.354,75.704c-9.864,0-12.329,2.465-14.795,12.329
			c-2.467,7.398,0,9.864,0,12.33c2.466,4.931,9.864,7.396,19.727,9.863c4.932,0,12.329,2.466,19.728,2.466
			c14.794,0,29.59-2.466,39.453-4.932c0,0,2.467,0,0-2.466c-12.329-9.862-34.521-22.193-54.25-27.125
			C142.751,75.704,140.285,75.704,135.354,75.704L135.354,75.704z"/>
		<path fill="#5E0F17" d="M337.557,142.282L337.557,142.282c-14.795,0-32.058-2.466-46.853-4.931
			c-19.726-4.932-32.054-14.795-34.522-27.125c-2.467-7.397,0-22.193,32.059-41.92c19.727-12.33,39.454-22.193,56.714-24.659
			c7.396-2.466,12.33-2.466,17.262-2.466c27.124,0,41.92,14.795,46.853,39.454c2.465,14.795,0,27.125-7.396,36.988
			c-7.401,12.329-22.195,19.727-39.456,22.192C354.816,142.282,347.419,142.282,337.557,142.282L337.557,142.282z M298.103,102.827
			C295.636,102.827,298.103,105.292,298.103,102.827c9.863,4.932,24.658,7.397,39.454,7.397c7.398,0,14.794,0,19.728-2.466
			c9.862-2.466,17.263-4.932,19.728-9.863c0,0,2.466-2.465,0-12.33c-2.465-9.863-4.933-12.329-14.796-12.329
			c-2.464,0-7.397,0-12.329,2.466C332.626,80.633,310.433,92.963,298.103,102.827L298.103,102.827z"/>
	</g>
</g>
<g id="Layer_3">
	<g id="Open_book">
		<g>
			<path fill-rule="evenodd" clip-rule="evenodd" fill="#1B1B1B" d="M458.444,42.535L266.668,92.438
				c-4.854,1.249-15.426,1.226-20.28-0.073L59.561,42.632c-16.698-4.42-32.843,7.16-32.843,23.618v338.816
				c0,13.983,11.027,27.343,25.083,31.139l186.827,49.733c4.998,1.299,11.437,2.067,18.093,2.067c4.564,0,11.339-0.386,17.586-1.971
				l191.729-49.926c14.08-3.652,25.179-16.962,25.179-31.043V66.25C491.215,49.792,475.069,38.188,458.444,42.535z M244.468,458.568
				L59.105,409.343c-1.418-0.383-3.364-2.882-3.364-4.276V70.67l182.886,48.557c1.782,0.471,3.75,0.865,5.84,1.182V458.568z
				 M462.192,405.066c0,1.395-2.355,3.796-3.748,4.182L273.49,457.352V119.515c0.271-0.066,0.547-0.121,0.816-0.191l187.886-48.821
				V405.066z M317.891,201.349c1.297,0,2.644-0.143,3.94-0.504l101.487-27.462c7.736-2.089,12.253-9.778,10.042-17.179
				c-2.163-7.4-10.188-11.701-17.876-9.634l-101.486,27.437c-7.737,2.092-12.204,9.78-10.043,17.179
				C305.732,197.336,311.549,201.349,317.891,201.349z M317.891,284.936c1.297,0,2.644-0.144,3.94-0.481l101.487-27.461
				c7.736-2.09,12.253-9.778,10.042-17.179c-2.163-7.399-10.188-11.701-17.876-9.657l-101.486,27.461
				c-7.737,2.09-12.204,9.778-10.043,17.18C305.732,280.947,311.549,284.936,317.891,284.936z M317.891,368.596
				c1.297,0,2.644-0.193,3.94-0.578l101.487-27.438c7.736-2.065,12.253-9.754,10.042-17.152
				c-2.163-7.401-10.188-11.725-17.876-9.659l-101.486,27.438c-7.737,2.113-12.204,9.802-10.043,17.203
				C305.732,364.56,311.549,368.596,317.891,368.596z M205.76,174.006L104.25,146.569c-7.665-2.067-15.738,2.234-17.9,9.634
				c-2.162,7.4,2.331,15.089,10.043,17.179l101.51,27.462c1.321,0.361,2.644,0.504,3.941,0.504c6.342,0,12.155-4.012,13.959-10.164
				C217.965,183.786,213.472,176.098,205.76,174.006z M205.76,257.618L104.25,230.157c-7.665-2.044-15.738,2.258-17.9,9.657
				c-2.162,7.401,2.331,15.089,10.043,17.179l101.51,27.461c1.321,0.338,2.644,0.481,3.941,0.481
				c6.342,0,12.155-3.988,13.959-10.138C217.965,267.396,213.472,259.708,205.76,257.618z M205.76,341.205L104.25,313.768
				c-7.665-2.065-15.738,2.258-17.9,9.659c-2.162,7.398,2.331,15.087,10.043,17.152l101.51,27.438
				c1.321,0.385,2.644,0.578,3.941,0.578c6.342,0,12.155-4.036,13.959-10.188C217.965,351.007,213.472,343.318,205.76,341.205z"/>
		</g>
	</g>
</g>
</svg>
