<?xml version="1.0" encoding="utf-8"?>
<!-- Generator: Adobe Illustrator 15.1.0, SVG Export Plug-In . SVG Version: 6.00 Build 0)  -->
<!DOCTYPE svg PUBLIC "-//W3C//DTD SVG 1.1//EN" "http://www.w3.org/Graphics/SVG/1.1/DTD/svg11.dtd">
<svg version="1.1" xmlns="http://www.w3.org/2000/svg" xmlns:xlink="http://www.w3.org/1999/xlink" x="0px" y="0px" width="512px"
	 height="512px" viewBox="0 0 512 512" enable-background="new 0 0 512 512" xml:space="preserve">
<g id="Layer_2" display="none">
	<g display="inline">
		<path fill="#5E0F17" d="M224.124,287.77H81.103c-12.329,0-19.727,9.863-19.727,19.727v157.818c0,12.33,9.864,19.727,19.727,19.727
			h145.488c4.933,0,4.933-4.932,4.933-4.932V295.166C231.523,295.166,231.523,287.77,224.124,287.77L224.124,287.77z"/>
		<path fill="#5E0F17" d="M416.464,287.77H273.443c-9.863,0-7.399,9.863-7.399,9.863v182.477c0,0,0,4.932,4.937,4.932h145.482
			c12.331,0,19.729-9.863,19.729-19.727V309.961C438.659,297.633,428.794,287.77,416.464,287.77L416.464,287.77z"/>
		<path fill="#5E0F17" d="M231.523,164.475c0,0,0-7.398-7.399-7.398H56.444c-12.33,0-19.726,9.864-19.726,19.728v66.579
			c0,12.33,9.862,19.728,19.726,19.728h167.68c7.399,0,7.399-4.934,7.399-4.934V164.475z"/>
		<path fill="#5E0F17" d="M441.124,159.542H273.443c-7.399,0-7.399,4.931-7.399,4.931v93.705c0,0,0,4.932,7.399,4.932h167.681
			c12.329,0,19.727-9.864,19.727-19.728v-64.112C460.851,166.939,453.453,159.542,441.124,159.542L441.124,159.542z"/>
		<path fill="#5E0F17" d="M160.013,142.282c-9.865,0-17.261,0-24.66-2.466c-19.728-4.931-32.057-12.329-39.454-22.192
			c-7.398-9.864-9.863-22.194-7.398-36.988c4.932-24.659,22.194-39.454,46.853-39.454c4.932,0,12.33,0,17.261,2.466
			c17.262,2.466,36.989,12.329,56.716,24.659c32.058,22.193,32.058,34.522,32.058,41.92c-2.467,12.33-12.33,19.728-34.522,27.125
			C194.535,139.814,177.273,142.282,160.013,142.282L160.013,142.282z M135.354,75.704c-9.864,0-12.329,2.465-14.795,12.329
			c-2.467,7.398,0,9.864,0,12.33c2.466,4.931,9.864,7.396,19.727,9.863c4.932,0,12.329,2.466,19.728,2.466
			c14.794,0,29.59-2.466,39.453-4.932c0,0,2.467,0,0-2.466c-12.329-9.862-34.521-22.193-54.25-27.125
			C142.751,75.704,140.285,75.704,135.354,75.704L135.354,75.704z"/>
		<path fill="#5E0F17" d="M337.557,142.282L337.557,142.282c-14.795,0-32.058-2.466-46.853-4.931
			c-19.726-4.932-32.054-14.795-34.522-27.125c-2.467-7.397,0-22.193,32.059-41.92c19.727-12.33,39.454-22.193,56.714-24.659
			c7.396-2.466,12.33-2.466,17.262-2.466c27.124,0,41.92,14.795,46.853,39.454c2.465,14.795,0,27.125-7.396,36.988
			c-7.401,12.329-22.195,19.727-39.456,22.192C354.816,142.282,347.419,142.282,337.557,142.282L337.557,142.282z M298.103,102.827
			C295.636,102.827,298.103,105.292,298.103,102.827c9.863,4.932,24.658,7.397,39.454,7.397c7.398,0,14.794,0,19.728-2.466
			c9.862-2.466,17.263-4.932,19.728-9.863c0,0,2.466-2.465,0-12.33c-2.465-9.863-4.933-12.329-14.796-12.329
			c-2.464,0-7.397,0-12.329,2.466C332.626,80.633,310.433,92.963,298.103,102.827L298.103,102.827z"/>
	</g>
</g>
<g id="Layer_3">
	<g id="Reports">
		<g>
			<path fill-rule="evenodd" clip-rule="evenodd" fill="#1B1B1B" d="M279.056,81.484c-7.945,0-14.37,6.162-14.37,13.775
				c0,7.637,6.425,13.823,14.37,13.823c101.829,0,172.87,71.327,172.87,168.966c0,97.642-82.842,177.105-184.671,177.105
				c-101.826,0-176.199-70.565-176.199-168.207c0-7.613-6.471-13.799-14.419-13.799c-7.945,0-14.417,6.186-14.417,13.799
				c0,112.868,87.361,195.804,205.034,195.804c117.72,0,213.458-91.834,213.458-204.702
				C480.713,165.207,396.775,81.484,279.056,81.484z M236.184,234.463V54.98c0-7.613-6.423-13.8-14.371-13.8
				c-112.104,0-201.56,85.816-201.56,193.283c0,7.613,6.423,13.798,14.368,13.798h187.192
				C229.761,248.262,236.184,242.077,236.184,234.463z M207.442,220.665H49.61c6.949-81.272,73.042-144.653,157.833-151.315V220.665
				z"/>
		</g>
	</g>
</g>
</svg>
