<?xml version="1.0" encoding="utf-8"?>
<!-- Generator: Adobe Illustrator 15.1.0, SVG Export Plug-In . SVG Version: 6.00 Build 0)  -->
<!DOCTYPE svg PUBLIC "-//W3C//DTD SVG 1.1//EN" "http://www.w3.org/Graphics/SVG/1.1/DTD/svg11.dtd">
<svg version="1.1" xmlns="http://www.w3.org/2000/svg" xmlns:xlink="http://www.w3.org/1999/xlink" x="0px" y="0px" width="512px"
	 height="512px" viewBox="0 0 512 512" enable-background="new 0 0 512 512" xml:space="preserve">
<g id="Layer_2" display="none">
	<g display="inline">
		<path fill="#5E0F17" d="M224.124,287.77H81.103c-12.329,0-19.727,9.863-19.727,19.727v157.818c0,12.33,9.864,19.727,19.727,19.727
			h145.488c4.933,0,4.933-4.932,4.933-4.932V295.166C231.523,295.166,231.523,287.77,224.124,287.77L224.124,287.77z"/>
		<path fill="#5E0F17" d="M416.464,287.77H273.443c-9.863,0-7.399,9.863-7.399,9.863v182.477c0,0,0,4.932,4.937,4.932h145.482
			c12.331,0,19.729-9.863,19.729-19.727V309.961C438.659,297.633,428.794,287.77,416.464,287.77L416.464,287.77z"/>
		<path fill="#5E0F17" d="M231.523,164.475c0,0,0-7.398-7.399-7.398H56.444c-12.33,0-19.726,9.864-19.726,19.728v66.579
			c0,12.33,9.862,19.728,19.726,19.728h167.68c7.399,0,7.399-4.934,7.399-4.934V164.475z"/>
		<path fill="#5E0F17" d="M441.124,159.542H273.443c-7.399,0-7.399,4.931-7.399,4.931v93.705c0,0,0,4.932,7.399,4.932h167.681
			c12.329,0,19.727-9.864,19.727-19.728v-64.112C460.851,166.939,453.453,159.542,441.124,159.542L441.124,159.542z"/>
		<path fill="#5E0F17" d="M160.013,142.282c-9.865,0-17.261,0-24.66-2.466c-19.728-4.931-32.057-12.329-39.454-22.192
			c-7.398-9.864-9.863-22.194-7.398-36.988c4.932-24.659,22.194-39.454,46.853-39.454c4.932,0,12.33,0,17.261,2.466
			c17.262,2.466,36.989,12.329,56.716,24.659c32.058,22.193,32.058,34.522,32.058,41.92c-2.467,12.33-12.33,19.728-34.522,27.125
			C194.535,139.814,177.273,142.282,160.013,142.282L160.013,142.282z M135.354,75.704c-9.864,0-12.329,2.465-14.795,12.329
			c-2.467,7.398,0,9.864,0,12.33c2.466,4.931,9.864,7.396,19.727,9.863c4.932,0,12.329,2.466,19.728,2.466
			c14.794,0,29.59-2.466,39.453-4.932c0,0,2.467,0,0-2.466c-12.329-9.862-34.521-22.193-54.25-27.125
			C142.751,75.704,140.285,75.704,135.354,75.704L135.354,75.704z"/>
		<path fill="#5E0F17" d="M337.557,142.282L337.557,142.282c-14.795,0-32.058-2.466-46.853-4.931
			c-19.726-4.932-32.054-14.795-34.522-27.125c-2.467-7.397,0-22.193,32.059-41.92c19.727-12.33,39.454-22.193,56.714-24.659
			c7.396-2.466,12.33-2.466,17.262-2.466c27.124,0,41.92,14.795,46.853,39.454c2.465,14.795,0,27.125-7.396,36.988
			c-7.401,12.329-22.195,19.727-39.456,22.192C354.816,142.282,347.419,142.282,337.557,142.282L337.557,142.282z M298.103,102.827
			C295.636,102.827,298.103,105.292,298.103,102.827c9.863,4.932,24.658,7.397,39.454,7.397c7.398,0,14.794,0,19.728-2.466
			c9.862-2.466,17.263-4.932,19.728-9.863c0,0,2.466-2.465,0-12.33c-2.465-9.863-4.933-12.329-14.796-12.329
			c-2.464,0-7.397,0-12.329,2.466C332.626,80.633,310.433,92.963,298.103,102.827L298.103,102.827z"/>
	</g>
</g>
<g id="Layer_3">
	<g id="Case_Study">
		<g>
			<path fill-rule="evenodd" clip-rule="evenodd" fill="#1B1B1B" d="M469.942,114.994H349.86V86.43
				c0-24.386-20.204-44.216-45.085-44.216h-90.398c-24.881,0-45.112,19.83-45.112,44.216v28.564H49.011
				c-16.521,0-30.058,13.263-30.058,29.486v103.286h-0.025v29.461h0.025v176.364c0,16.172,13.536,29.461,30.058,29.461h420.931
				c16.521,0,30.058-13.289,30.058-29.461V144.479C500,128.256,486.464,114.994,469.942,114.994z M199.324,86.43
				c0-8.137,6.743-14.731,15.053-14.731h90.398c8.311,0,15.029,6.594,15.029,14.731v28.564h-120.48V86.43z M469.942,453.591H49.011
				V277.227h165.317v29.708c0,16.224,13.486,29.461,30.059,29.461h29.932c16.572,0,30.108-13.237,30.108-29.461v-29.708h165.516
				V453.591z M244.387,306.935v-74.247h29.932l0.049,74.247H244.387z M304.427,247.766v-15.078
				c0-16.273-13.536-29.487-30.108-29.487h-29.932c-16.573,0-30.059,13.213-30.059,29.487v15.078H49.011V144.479h420.931v103.286
				H304.427z"/>
		</g>
	</g>
</g>
</svg>
