<?xml version="1.0" encoding="utf-8"?>
<!-- Generator: Adobe Illustrator 15.1.0, SVG Export Plug-In . SVG Version: 6.00 Build 0)  -->
<!DOCTYPE svg PUBLIC "-//W3C//DTD SVG 1.1//EN" "http://www.w3.org/Graphics/SVG/1.1/DTD/svg11.dtd">
<svg version="1.1" xmlns="http://www.w3.org/2000/svg" xmlns:xlink="http://www.w3.org/1999/xlink" x="0px" y="0px" width="512px"
	 height="512px" viewBox="0 0 512 512" enable-background="new 0 0 512 512" xml:space="preserve">
<g id="Layer_2" display="none">
	<g display="inline">
		<path fill="#5E0F17" d="M224.124,287.77H81.103c-12.329,0-19.727,9.863-19.727,19.727v157.818c0,12.33,9.864,19.727,19.727,19.727
			h145.488c4.933,0,4.933-4.932,4.933-4.932V295.166C231.523,295.166,231.523,287.77,224.124,287.77L224.124,287.77z"/>
		<path fill="#5E0F17" d="M416.464,287.77H273.443c-9.863,0-7.399,9.863-7.399,9.863v182.477c0,0,0,4.932,4.937,4.932h145.482
			c12.331,0,19.729-9.863,19.729-19.727V309.961C438.659,297.633,428.794,287.77,416.464,287.77L416.464,287.77z"/>
		<path fill="#5E0F17" d="M231.523,164.475c0,0,0-7.398-7.399-7.398H56.444c-12.33,0-19.726,9.864-19.726,19.728v66.579
			c0,12.33,9.862,19.728,19.726,19.728h167.68c7.399,0,7.399-4.934,7.399-4.934V164.475z"/>
		<path fill="#5E0F17" d="M441.124,159.542H273.443c-7.399,0-7.399,4.931-7.399,4.931v93.705c0,0,0,4.932,7.399,4.932h167.681
			c12.329,0,19.727-9.864,19.727-19.728v-64.112C460.851,166.939,453.453,159.542,441.124,159.542L441.124,159.542z"/>
		<path fill="#5E0F17" d="M160.013,142.282c-9.865,0-17.261,0-24.66-2.466c-19.728-4.931-32.057-12.329-39.454-22.192
			c-7.398-9.864-9.863-22.194-7.398-36.988c4.932-24.659,22.194-39.454,46.853-39.454c4.932,0,12.33,0,17.261,2.466
			c17.262,2.466,36.989,12.329,56.716,24.659c32.058,22.193,32.058,34.522,32.058,41.92c-2.467,12.33-12.33,19.728-34.522,27.125
			C194.535,139.814,177.273,142.282,160.013,142.282L160.013,142.282z M135.354,75.704c-9.864,0-12.329,2.465-14.795,12.329
			c-2.467,7.398,0,9.864,0,12.33c2.466,4.931,9.864,7.396,19.727,9.863c4.932,0,12.329,2.466,19.728,2.466
			c14.794,0,29.59-2.466,39.453-4.932c0,0,2.467,0,0-2.466c-12.329-9.862-34.521-22.193-54.25-27.125
			C142.751,75.704,140.285,75.704,135.354,75.704L135.354,75.704z"/>
		<path fill="#5E0F17" d="M337.557,142.282L337.557,142.282c-14.795,0-32.058-2.466-46.853-4.931
			c-19.726-4.932-32.054-14.795-34.522-27.125c-2.467-7.397,0-22.193,32.059-41.92c19.727-12.33,39.454-22.193,56.714-24.659
			c7.396-2.466,12.33-2.466,17.262-2.466c27.124,0,41.92,14.795,46.853,39.454c2.465,14.795,0,27.125-7.396,36.988
			c-7.401,12.329-22.195,19.727-39.456,22.192C354.816,142.282,347.419,142.282,337.557,142.282L337.557,142.282z M298.103,102.827
			C295.636,102.827,298.103,105.292,298.103,102.827c9.863,4.932,24.658,7.397,39.454,7.397c7.398,0,14.794,0,19.728-2.466
			c9.862-2.466,17.263-4.932,19.728-9.863c0,0,2.466-2.465,0-12.33c-2.465-9.863-4.933-12.329-14.796-12.329
			c-2.464,0-7.397,0-12.329,2.466C332.626,80.633,310.433,92.963,298.103,102.827L298.103,102.827z"/>
	</g>
</g>
<g id="Layer_3">
	<g id="Event">
		<g>
			<path fill-rule="evenodd" clip-rule="evenodd" fill="#1B1B1B" d="M462.928,81.499H346.097V53.572
				c0-7.755-6.521-14.012-14.591-14.012c-8.068,0-14.593,6.257-14.593,14.012v27.927H200.131V53.572
				c0-7.755-6.545-14.012-14.591-14.012c-8.069,0-14.616,6.257-14.616,14.012v27.927H54.263c-16.113,0-29.183,12.539-29.183,28.023
				v350.25c0,15.461,13.069,28.023,29.183,28.023h408.665c16.138,0,29.232-12.563,29.232-28.023v-350.25
				C492.16,94.038,479.065,81.499,462.928,81.499z M462.928,459.772H54.263v-350.25h116.662v14.109
				c0,7.73,6.547,14.011,14.616,14.011c8.045,0,14.591-6.281,14.591-14.011v-14.109h116.782v14.109
				c0,7.73,6.524,14.011,14.593,14.011c8.069,0,14.591-6.281,14.591-14.011v-14.109h116.831V459.772z M360.785,263.63h29.184
				c8.069,0,14.591-6.28,14.591-13.987v-28.025c0-7.755-6.521-14.037-14.591-14.037h-29.184c-8.068,0-14.591,6.281-14.591,14.037
				v28.025C346.194,257.35,352.717,263.63,360.785,263.63z M360.785,375.748h29.184c8.069,0,14.591-6.281,14.591-14.061v-28.022
				c0-7.729-6.521-14.011-14.591-14.011h-29.184c-8.068,0-14.591,6.281-14.591,14.011v28.022
				C346.194,369.467,352.717,375.748,360.785,375.748z M273.188,319.654h-29.184c-8.045,0-14.593,6.281-14.593,14.011v28.022
				c0,7.779,6.548,14.061,14.593,14.061h29.184c8.068,0,14.591-6.281,14.591-14.061v-28.022
				C287.778,325.936,281.256,319.654,273.188,319.654z M273.188,207.581h-29.184c-8.045,0-14.593,6.281-14.593,14.037v28.025
				c0,7.707,6.548,13.987,14.593,13.987h29.184c8.068,0,14.591-6.28,14.591-13.987v-28.025
				C287.778,213.862,281.256,207.581,273.188,207.581z M156.429,207.581h-29.184c-8.069,0-14.591,6.281-14.591,14.037v28.025
				c0,7.707,6.522,13.987,14.591,13.987h29.184c8.069,0,14.616-6.28,14.616-13.987v-28.025
				C171.045,213.862,164.498,207.581,156.429,207.581z M156.429,319.654h-29.184c-8.069,0-14.591,6.281-14.591,14.011v28.022
				c0,7.779,6.522,14.061,14.591,14.061h29.184c8.069,0,14.616-6.281,14.616-14.061v-28.022
				C171.045,325.936,164.498,319.654,156.429,319.654z"/>
		</g>
	</g>
</g>
</svg>
