<?xml version="1.0" encoding="UTF-8" standalone="no"?>
<svg
   xmlns:dc="http://purl.org/dc/elements/1.1/"
   xmlns:cc="http://creativecommons.org/ns#"
   xmlns:rdf="http://www.w3.org/1999/02/22-rdf-syntax-ns#"
   xmlns:svg="http://www.w3.org/2000/svg"
   xmlns="http://www.w3.org/2000/svg"
   id="svg23"
   xml:space="preserve"
   enable-background="new 0 0 512 512"
   viewBox="0 0 512 512"
   height="512px"
   width="512px"
   y="0px"
   x="0px"
   version="1.1"><metadata
     id="metadata32"><rdf:RDF><cc:Work
         rdf:about=""><dc:format>image/svg+xml</dc:format><dc:type
           rdf:resource="http://purl.org/dc/dcmitype/StillImage" /><dc:title></dc:title></cc:Work></rdf:RDF></metadata><defs
     id="defs30" /><g
     id="Layer_3" /><g
     style="fill:#000000"
     transform="translate(-2.1694915,-26.033898)"
     id="Layer_2"><path
       style="fill:#000000"
       d="m 262.541,63.408 57.188,114.459 c 3.884,3.884 7.771,7.772 15.631,11.656 l 128.684,19.521 c 15.543,3.884 23.404,23.404 11.661,31.177 l -93.535,89.733 c -3.972,3.889 -7.86,11.661 -3.972,15.633 l 23.404,128.683 c 3.883,15.544 -15.544,27.293 -27.293,19.433 L 261.258,431.349 c -3.883,-3.889 -11.744,-3.889 -19.516,0 l -113.051,62.354 c -15.631,7.86 -31.268,-3.889 -27.292,-19.433 l 23.405,-128.683 c 0,-7.86 0,-11.744 -3.883,-15.633 L 27.297,240.221 C 15.554,228.565 23.414,209.044 38.958,209.044 L 167.64,189.523 c 7.86,0 11.745,-3.884 15.633,-11.656 L 241.742,60.84 c 5.035,-8.422 14.953,-7.262 19.516,0 0.382,0.608 1.283,2.568 1.283,2.568 z"
       id="path4394" /></g></svg>