<?xml version="1.0" encoding="utf-8"?>
<!-- Generator: Adobe Illustrator 19.0.1, SVG Export Plug-In . SVG Version: 6.00 Build 0)  -->
<!DOCTYPE svg PUBLIC "-//W3C//DTD SVG 1.1//EN" "http://www.w3.org/Graphics/SVG/1.1/DTD/svg11.dtd">
<svg version="1.1" id="Warstwa_1" xmlns="http://www.w3.org/2000/svg" xmlns:xlink="http://www.w3.org/1999/xlink" x="0px" y="0px"
	 viewBox="0 0 512 512" style="enable-background:new 0 0 512 512;" xml:space="preserve">
<style type="text/css">
	.st0{clip-path:url(#SVGID_2_);fill:#FFFFFF;}
	.st1{fill:#FFFFFF;}
</style>
<g>
	<g>
		<defs>
			<rect id="SVGID_1_" x="79.3" y="134.4" width="341.2" height="262.9"/>
		</defs>
		<clipPath id="SVGID_2_">
			<use xlink:href="#SVGID_1_"  style="overflow:visible;"/>
		</clipPath>
		<path class="st0" d="M418,177.9c-2.4-3.5-6.4-5.6-10.6-5.6H183.7l-29-32.2c-3.3-3.6-7.9-5.7-12.8-5.7l-45.5,0
			c-9.5,0-17.2,7.7-17.2,17.2c0,9.5,7.7,17.2,17.2,17.2h37.9l23.4,26l49.6,129c1.9,5,6.7,8.3,12,8.3h136.5c5.3,0,10.1-3.3,12-8.3
			l51.5-133.9C420.9,185.9,420.4,181.4,418,177.9L418,177.9z M418,177.9"/>
	</g>
	<path class="st1" d="M265.1,371.3c0,14.2-11.5,25.8-25.8,25.8c-14.2,0-25.8-11.5-25.8-25.8c0-14.2,11.5-25.8,25.8-25.8
		C253.6,345.6,265.1,357.1,265.1,371.3L265.1,371.3z M265.1,371.3"/>
	<path class="st1" d="M359.7,371.3c0,14.2-11.5,25.8-25.8,25.8c-14.2,0-25.8-11.5-25.8-25.8c0-14.2,11.5-25.8,25.8-25.8
		C348.2,345.6,359.7,357.1,359.7,371.3L359.7,371.3z M359.7,371.3"/>
</g>
</svg>
