<svg xmlns="http://www.w3.org/2000/svg" xmlns:xlink="http://www.w3.org/1999/xlink" preserveAspectRatio="xMidYMid" width="511.999" height="451.764" viewBox="0 0 17 15">
  <defs>
    <style>
      .cls-1 {
        fill: #1b1b1b;
        filter: url(#color-overlay-1);
        fill-rule: evenodd;
      }
    </style>

    <filter id="color-overlay-1" filterUnits="userSpaceOnUse">
      <feFlood flood-color="#363f47"/>
      <feComposite operator="in" in2="SourceGraphic"/>
      <feBlend in2="SourceGraphic" result="solidFill"/>
    </filter>
  </defs>
  <path d="M12.809,12.956 L12.809,12.957 C12.515,12.957 12.277,12.716 12.277,12.419 C12.277,12.121 12.515,11.880 12.809,11.880 L12.960,11.880 C14.777,11.880 15.977,9.834 15.977,7.998 C15.977,5.980 14.246,4.357 12.273,4.315 L11.890,4.306 L11.776,3.935 C11.228,2.137 10.043,1.083 7.932,1.083 C5.300,1.083 3.597,3.062 3.597,5.686 L3.601,5.693 L3.644,6.187 L3.162,6.271 C1.987,6.475 1.050,7.697 1.050,9.052 C1.050,10.585 2.221,11.880 3.587,11.880 L4.060,11.880 C4.353,11.880 4.591,12.121 4.591,12.419 C4.591,12.716 4.353,12.957 4.060,12.957 L3.587,12.957 C1.645,12.957 0.004,11.169 0.004,9.052 C0.004,7.323 1.069,5.796 2.545,5.318 C2.730,2.310 4.871,0.005 7.932,0.005 C10.338,0.005 11.931,1.268 12.672,3.262 C15.074,3.524 16.996,5.511 16.996,7.998 C16.996,10.311 15.465,12.885 12.809,12.956 ZM6.299,11.940 C6.447,11.783 6.688,11.816 6.836,11.974 L7.967,13.252 L7.967,7.824 C7.967,7.526 8.205,7.285 8.498,7.285 C8.791,7.285 9.029,7.526 9.029,7.824 L9.029,13.247 L10.198,11.940 C10.346,11.783 10.586,11.783 10.735,11.940 L10.869,12.048 C11.017,12.206 11.017,12.393 10.869,12.551 L8.902,14.735 C8.900,14.738 8.899,14.741 8.896,14.744 L8.762,14.887 C8.688,14.965 8.590,15.004 8.493,15.004 C8.394,15.004 8.297,14.965 8.222,14.887 L8.088,14.744 C8.085,14.741 8.085,14.738 8.082,14.735 L6.165,12.584 C6.016,12.427 6.016,12.172 6.165,12.015 L6.299,11.940 Z" class="cls-1"/>
</svg>
