<?xml version="1.0" encoding="utf-8"?>
<!-- Generator: Adobe Illustrator 19.0.1, SVG Export Plug-In . SVG Version: 6.00 Build 0)  -->
<!DOCTYPE svg PUBLIC "-//W3C//DTD SVG 1.1//EN" "http://www.w3.org/Graphics/SVG/1.1/DTD/svg11.dtd">
<svg version="1.1" id="Warstwa_1" xmlns="http://www.w3.org/2000/svg" xmlns:xlink="http://www.w3.org/1999/xlink" x="0px" y="0px"
	 viewBox="0 0 512 512" style="enable-background:new 0 0 512 512;" xml:space="preserve">
<style type="text/css">
	.st0{clip-path:url(#SVGID_2_);fill:#FFFFFF;}
	.st1{fill:#FFFFFF;}
</style>
<g>
	<g>
		<defs>
			<rect id="SVGID_1_" x="80.9" y="145.2" width="354.9" height="221"/>
		</defs>
		<clipPath id="SVGID_2_">
			<use xlink:href="#SVGID_1_"  style="overflow:visible;"/>
		</clipPath>
		<path class="st0" d="M434.3,260.9c1.8-3.4,1.8-7.5,0-10.9c-33.9-62.4-100-104.7-176-104.7S116.2,187.6,82.3,250
			c-1.8,3.4-1.8,7.5,0,10.9c33.9,62.4,100,104.7,176,104.7S400.4,323.3,434.3,260.9L434.3,260.9z M318.1,315.2
			c-15.3,15.3-36.4,24.8-59.8,24.8l0,0c-46.7,0-84.5-37.8-84.5-84.5s37.8-84.5,84.5-84.5c46.7,0,84.5,37.8,84.5,84.5
			C342.8,278.8,333.4,299.9,318.1,315.2 M258.3,340"/>
	</g>
	<path class="st1" d="M258.3,212.3c-3.6,0-7,0.4-10.3,1.2c3.4,3.9,5.4,9,5.4,14.6c0,12.3-10,22.4-22.4,22.4
		c-5.6,0-10.7-2.1-14.6-5.4c-0.8,3.3-1.2,6.8-1.2,10.3c0,23.8,19.3,43.1,43.1,43.1c23.8,0,43.1-19.3,43.1-43.1
		C301.4,231.6,282.1,212.3,258.3,212.3L258.3,212.3z M258.3,212.3"/>
</g>
</svg>
