<?xml version="1.0" encoding="UTF-8" standalone="no"?>
<svg
   xmlns:dc="http://purl.org/dc/elements/1.1/"
   xmlns:cc="http://creativecommons.org/ns#"
   xmlns:rdf="http://www.w3.org/1999/02/22-rdf-syntax-ns#"
   xmlns:svg="http://www.w3.org/2000/svg"
   xmlns="http://www.w3.org/2000/svg"
   xml:space="preserve"
   viewBox="0 0 512 512"
   y="0px"
   x="0px"
   id="Capa_1"
   version="1.1"><metadata
     id="metadata13"><rdf:RDF><cc:Work
         rdf:about=""><dc:format>image/svg+xml</dc:format><dc:type
           rdf:resource="http://purl.org/dc/dcmitype/StillImage" /><dc:title></dc:title></cc:Work></rdf:RDF></metadata><defs
     id="defs11" /><g
     transform="translate(461.22889,0)"
     id="g3"><g
       id="g5"><path
         id="path7"
         d="m -205.2,1.2 c -141.2,0 -256,114.8 -256,256 0,141.1 114.8,256 256,256 141.1,0 256,-114.9 256,-256 C 50.8,116 -64,1.2 -205.2,1.2 Z m 63.7,265 -41.6,0 c 0,66.5 0,148.4 0,148.4 l -61.7,0 c 0,0 0,-81.1 0,-148.4 l -29.3,0 0,-52.5 29.3,0 0,-33.9 c 0,-24.3 11.5,-62.3 62.3,-62.3 l 45.7,0.2 0,50.9 c 0,0 -27.8,0 -33.2,0 -5.4,0 -13.1,2.7 -13.1,14.3 l 0,30.8 47,0 -5.4,52.5 z" /></g></g></svg>