<?xml version="1.0" encoding="utf-8"?>
<!-- Generator: Adobe Illustrator 19.0.1, SVG Export Plug-In . SVG Version: 6.00 Build 0)  -->
<!DOCTYPE svg PUBLIC "-//W3C//DTD SVG 1.1//EN" "http://www.w3.org/Graphics/SVG/1.1/DTD/svg11.dtd">
<svg version="1.1" id="Warstwa_1" xmlns="http://www.w3.org/2000/svg" xmlns:xlink="http://www.w3.org/1999/xlink" x="0px" y="0px"
	 viewBox="0 0 512 512" style="enable-background:new 0 0 512 512;" xml:space="preserve">
<style type="text/css">
	.st0{fill:#FFFFFF;}
</style>
<g>
	<path class="st0" d="M324.2,111.1c-26.3,0-50.1,11.7-66.7,30.5c-16.6-18.7-40.3-30.5-66.7-30.5c-50.2,0-90.9,42.6-90.9,95.2
		c0,14.1,2.4,27.7,6.6,40.7c0,0,3.8,11.7,7.1,18.2C151.9,347.6,257.5,401,257.5,401s105.6-53.5,143.9-135.9c0,0,4.9-11,7.1-18.2
		c4-13,6.6-26.6,6.6-40.7C415.1,153.7,374.4,111.1,324.2,111.1L324.2,111.1z M324.2,111.1"/>
</g>
</svg>
