<?xml version="1.0" encoding="UTF-8" standalone="no"?>
<svg
   xmlns:dc="http://purl.org/dc/elements/1.1/"
   xmlns:cc="http://creativecommons.org/ns#"
   xmlns:rdf="http://www.w3.org/1999/02/22-rdf-syntax-ns#"
   xmlns:svg="http://www.w3.org/2000/svg"
   xmlns="http://www.w3.org/2000/svg"
   xml:space="preserve"
   viewBox="0 0 512 512"
   y="0px"
   x="0px"
   id="Capa_1"
   version="1.1"><metadata
     id="metadata21"><rdf:RDF><cc:Work
         rdf:about=""><dc:format>image/svg+xml</dc:format><dc:type
           rdf:resource="http://purl.org/dc/dcmitype/StillImage" /><dc:title></dc:title></cc:Work></rdf:RDF></metadata><defs
     id="defs19" /><g
     transform="translate(230.12213,0)"
     id="g3"><g
       id="g5"><g
         id="g7"><path
           id="path9"
           d="m 72.7,220.8 c -21.9,0 -31.7,12 -37.2,20.5 l 0,-17.6 -41.3,0 c 0.5,11.6 0,124.2 0,124.2 l 41.3,0 0,-69.4 c 0,-3.7 0.2,-7.4 1.4,-10.1 3,-7.4 9.8,-15.1 21.2,-15.1 14.9,0 20.9,11.4 20.9,28.1 l 0,66.4 41.3,0 0,0 0,-71.2 C 120.2,238.5 99.8,220.8 72.7,220.8 Z m -37.3,20.9 -0.3,0 c 0.1,-0.1 0.2,-0.3 0.3,-0.4 l 0,0.4 z" /><rect
           id="rect11"
           height="124.2"
           width="41.299999"
           y="223.7"
           x="-69.900002" /><path
           id="path13"
           d="m 26,1.2 c -141.2,0 -256,114.8 -256,256 0,141.1 114.8,256 256,256 141.1,0 256,-114.9 256,-256 C 282,116 167.2,1.2 26,1.2 Z M 161.8,373 c 0,10.9 -9,19.7 -20.2,19.7 l -232.9,0 c -11.1,0 -20.2,-8.8 -20.2,-19.7 l 0,-235.6 c 0,-10.9 9,-19.7 20.2,-19.7 l 232.9,0 c 11.2,0 20.2,8.8 20.2,19.7 0,0 0,235.6 0,235.6 z" /><path
           id="path15"
           d="m -49,163.9 c -14.1,0 -23.3,9.3 -23.3,21.4 0,11.9 9,21.4 22.8,21.4 l 0.3,0 c 14.4,0 23.4,-9.5 23.4,-21.4 -0.4,-12.2 -9.1,-21.4 -23.2,-21.4 z" /></g></g></g></svg>