<?xml version="1.0" encoding="utf-8"?>
<!-- Generator: Adobe Illustrator 19.0.1, SVG Export Plug-In . SVG Version: 6.00 Build 0)  -->
<!DOCTYPE svg PUBLIC "-//W3C//DTD SVG 1.1//EN" "http://www.w3.org/Graphics/SVG/1.1/DTD/svg11.dtd">
<svg version="1.1" id="Warstwa_1" xmlns="http://www.w3.org/2000/svg" xmlns:xlink="http://www.w3.org/1999/xlink" x="0px" y="0px"
	 viewBox="0 0 512 512" style="enable-background:new 0 0 512 512;" xml:space="preserve">
<style type="text/css">
	.st0{clip-path:url(#SVGID_2_);fill:#FFFFFF;}
</style>
<g>
	<g>
		<defs>
			<rect id="SVGID_1_" x="82.4" y="100.1" width="350.3" height="311.7"/>
		</defs>
		<clipPath id="SVGID_2_">
			<use xlink:href="#SVGID_1_"  style="overflow:visible;"/>
		</clipPath>
		<path class="st0" d="M228.3,100.1L228.3,100.1c80.6,0,146,52.9,146,118.1c0,65.2-65.4,118.1-146,118.1c-7.7,0-15.3-0.5-22.8-1.4
			c-31.4,31.2-67.6,36.8-103.7,37.6v-7.6c19.5-9.5,35.3-26.9,35.3-46.7c0-2.8-0.2-5.5-0.6-8.1c-33-21.7-54.1-54.7-54.1-91.8
			C82.4,153,147.7,100.1,228.3,100.1L228.3,100.1z M385.2,364.9c0,17,11,31.9,28,40.1v6.6c-31.4-0.7-60.1-5.5-87.3-32.3
			c-6.4,0.8-13,1.2-19.7,1.2c-29,0-55.8-7.8-77.1-21c44-0.2,85.5-14.3,117-39.7c15.9-12.9,28.4-27.9,37.2-44.8
			c9.4-17.9,14.1-37,14.1-56.7c0-3.2-0.1-6.3-0.4-9.5c22.1,18.2,35.7,43.1,35.7,70.5c0,31.8-18.3,60.1-46.9,78.7
			C385.4,360.2,385.2,362.5,385.2,364.9L385.2,364.9z M385.2,364.9"/>
	</g>
</g>
</svg>
