<?xml version="1.0" encoding="utf-8"?>
<!-- Generator: Adobe Illustrator 19.0.1, SVG Export Plug-In . SVG Version: 6.00 Build 0)  -->
<!DOCTYPE svg PUBLIC "-//W3C//DTD SVG 1.1//EN" "http://www.w3.org/Graphics/SVG/1.1/DTD/svg11.dtd">
<svg version="1.1" id="Warstwa_1" xmlns="http://www.w3.org/2000/svg" xmlns:xlink="http://www.w3.org/1999/xlink" x="0px" y="0px"
	 viewBox="0 0 512 512" style="enable-background:new 0 0 512 512;" xml:space="preserve">
<style type="text/css">
	.st0{fill:#231F20;}
</style>
<g>
	<path class="st0" d="M241.4,271.7H145c-7.6,0-13.9,6.2-13.9,13.9v104.2c0,7.6,6.2,13.9,13.9,13.9h98c3.3,0,3.3-3.5,3.3-3.5V276.4
		C246.2,276.4,246.2,271.7,241.4,271.7L241.4,271.7z"/>
	<path class="st0" d="M371,271.7h-96.3c-5.9,0-5,6.1-5,6.1v122.5c0,0,0,3.4,3.5,3.4H371c7.6,0,13.9-6.2,13.9-13.9V285.6
		C384.9,277.9,378.6,271.7,371,271.7L371,271.7z"/>
	<path class="st0" d="M246.2,189.7c0,0,0-4.7-4.6-4.7H129.3c-7.6,0-13.9,6.2-13.9,13.9v43.3c0,7.6,6.2,13.9,13.9,13.9H242
		c4.3,0,4.3-3.7,4.3-3.7L246.2,189.7z"/>
	<path class="st0" d="M386.7,184.9H274c-4.3,0-4.3,4.1-4.3,4.1v63.4c0,0,0,3.6,5.2,3.6h111.7c7.6,0,13.9-6.2,13.9-13.9v-43.3
		C400.5,191.2,394.3,184.9,386.7,184.9L386.7,184.9z"/>
	<path class="st0" d="M199,174.7c-6.4,0-12.2-0.5-17.2-1.5c-12.9-2.5-21.8-7.4-27.2-15c-4.8-6.8-6.3-15.2-4.4-24.9
		c3.3-17,14.8-26.4,32.2-26.4c3.7,0,7.7,0.4,12,1.3c10.9,2.1,24.9,8.4,37.4,16.8c21.2,14.2,22.3,23,21.2,28.4
		c-1.6,7.9-9,13.6-22.7,17.4C221.1,173.2,209.7,174.7,199,174.7L199,174.7z M182.4,129.1c-6.7,0-9.1,1.9-10.3,8.4
		c-1,5.3,0.3,7.2,0.7,7.8c1.8,2.6,6.5,4.7,13.2,6c3.6,0.7,8.1,1.1,13,1.1c10.7,0,20.1-1.6,26.3-3.4c0.5-0.1,1.2-0.7,0.4-1.1
		c-8.2-6.6-23.1-15.5-35.5-18C187.3,129.4,184.7,129.1,182.4,129.1L182.4,129.1z"/>
	<path class="st0" d="M317.3,174.7L317.3,174.7c-10.7,0-22.1-1.4-31.4-4c-13.7-3.7-21.2-9.4-22.7-17.4c-1.1-5.4,0-14.2,21.2-28.4
		c12.5-8.4,26.5-14.6,37.4-16.8c4.3-0.8,8.4-1.3,12-1.3c17.4,0,28.9,9.4,32.2,26.4c1.9,9.7,0.4,18.1-4.4,24.9
		c-5.4,7.6-14.2,12.5-27.2,15C329.4,174.2,323.6,174.7,317.3,174.7L317.3,174.7z M290.7,147.8c-0.7,0.4-0.4,1.1,0,1.2
		c6.2,1.8,15.7,3.4,26.5,3.4c4.9,0,9.3-0.4,13-1.1c6.7-1.3,11.4-3.4,13.2-6c0.4-0.6,1.7-2.5,0.7-7.8c-1.3-6.5-3.6-8.4-10.3-8.4
		c-2.3,0-4.9,0.3-7.8,0.8C313.6,132.4,298.9,141.1,290.7,147.8L290.7,147.8z"/>
</g>
</svg>
