<?xml version="1.0" encoding="utf-8"?>
<!-- Generator: Adobe Illustrator 15.1.0, SVG Export Plug-In . SVG Version: 6.00 Build 0)  -->
<!DOCTYPE svg PUBLIC "-//W3C//DTD SVG 1.1//EN" "http://www.w3.org/Graphics/SVG/1.1/DTD/svg11.dtd">
<svg version="1.1"
	 id="Warstwa_1" xmlns:rdf="http://www.w3.org/1999/02/22-rdf-syntax-ns#" xmlns:cc="http://creativecommons.org/ns#" xmlns:svg="http://www.w3.org/2000/svg" xmlns:dc="http://purl.org/dc/elements/1.1/"
	 xmlns="http://www.w3.org/2000/svg" xmlns:xlink="http://www.w3.org/1999/xlink" x="0px" y="0px" width="512px" height="512px"
	 viewBox="0 0 512 512" enable-background="new 0 0 512 512" xml:space="preserve">
<path id="path7" fill="#FFFFFF" d="M256.052,253.328c54.73,0,75.034-54.731,79.448-100.635
	c7.062-54.731-19.421-97.103-79.448-97.103c-60.028,0-86.511,42.372-79.448,97.103C181.017,198.597,201.32,253.328,256.052,253.328
	L256.052,253.328z"/>
<path fill="#FFFFFF" d="M398.191,331.893c-3.531-21.186-7.945-51.199-26.482-65.324c-11.477-8.827-24.717-11.475-37.076-15.889
	c-6.18-2.648-11.477-4.414-15.891-7.063c-16.676,18.433-37.719,28.133-63.124,28.243c-25.406-0.11-46.448-9.811-63.125-28.243
	c-4.414,2.648-9.711,4.414-15.89,7.063c-12.359,4.414-25.601,7.062-37.076,15.889c-18.538,14.125-22.951,44.139-26.483,65.324
	c-2.648,16.773-5.296,35.311-5.296,52.083c0,14.124,5.296,15.89,16.772,19.421c14.124,5.297,28.248,8.827,44.138,12.358
	c27.969,5.244,57.667,11.345,86.527,11.466c0,0.003,0,0.007,0,0.011c0.144,0,0.289-0.005,0.433-0.006
	c0.144,0.001,0.289,0.006,0.433,0.006c0-0.004,0-0.008,0-0.011c28.86-0.121,58.559-6.222,86.527-11.466
	c15.889-3.531,30.014-7.062,44.137-12.358c11.477-3.531,16.773-5.297,16.773-19.421C403.488,367.203,400.84,348.666,398.191,331.893
	z"/>
</svg>
