<?xml version="1.0" encoding="utf-8"?>
<!-- Generator: Adobe Illustrator 19.0.1, SVG Export Plug-In . SVG Version: 6.00 Build 0)  -->
<!DOCTYPE svg PUBLIC "-//W3C//DTD SVG 1.1//EN" "http://www.w3.org/Graphics/SVG/1.1/DTD/svg11.dtd">
<svg version="1.1" id="Warstwa_1" xmlns="http://www.w3.org/2000/svg" xmlns:xlink="http://www.w3.org/1999/xlink" x="0px" y="0px"
	 viewBox="0 0 512 512" style="enable-background:new 0 0 512 512;" xml:space="preserve">
<style type="text/css">
	.st0{fill:#FFFFFF;}
</style>
<path id="path-1_2_" class="st0" d="M413.5,166.3l-166.3,56.1c-3.7,1.2-7.5,1.9-11.3,1.9c-3,0-6-0.4-8.9-1.1l-123.2-32
	c-5.1-1.3-8.8-5.8-9-11c-0.2-5.2,3-10,8-11.7l152.7-54c3.8-1.3,7.8-2,11.8-2c2.6,0,5.1,0.3,7.6,0.8l137.3,30.2
	c5.3,1.2,9.2,5.7,9.5,11C422.1,159.6,418.7,164.5,413.5,166.3z M102.8,226.4l21.5-7.6l97.1,25.2c4.8,1.2,9.7,1.9,14.6,1.9
	c6.3,0,12.5-1,18.5-3L391,196.7l21.2,4.7c5.3,1.2,9.2,5.7,9.5,11c0.3,5.3-3,10.2-8.2,11.9l-166.3,56.1c-3.7,1.2-7.5,1.9-11.3,1.9
	c-3,0-6-0.4-8.9-1.1l-123.2-32c-5.1-1.3-8.8-5.8-9-11C94.5,232.9,97.8,228.1,102.8,226.4z M102.8,284.4l21.5-7.6l97.1,25.2
	c4.8,1.2,9.7,1.9,14.6,1.9c6.3,0,12.5-1,18.5-3L391,254.8l21.2,4.7c5.3,1.2,9.2,5.7,9.5,11c0.3,5.3-3,10.2-8.2,11.9l-166.3,56.1
	c-3.7,1.2-7.5,1.9-11.3,1.9c-3,0-6-0.4-8.9-1.1l-123.2-32c-5.1-1.3-8.8-5.8-9-11C94.5,291,97.8,286.2,102.8,284.4z M102.8,342.5
	l21.5-7.6l97.1,25.2c4.8,1.2,9.7,1.9,14.6,1.9c6.3,0,12.5-1,18.5-3L391,312.9l21.2,4.7c5.3,1.2,9.2,5.7,9.5,11
	c0.3,5.3-3,10.2-8.2,11.9l-166.3,56.1c-3.7,1.2-7.5,1.9-11.3,1.9c-3,0-6-0.4-8.9-1.1l-123.2-32c-5.1-1.3-8.8-5.8-9-11
	C94.5,349,97.8,344.3,102.8,342.5z"/>
</svg>
