<?xml version="1.0" encoding="utf-8"?>
<!-- Generator: Adobe Illustrator 19.0.1, SVG Export Plug-In . SVG Version: 6.00 Build 0)  -->
<!DOCTYPE svg PUBLIC "-//W3C//DTD SVG 1.1//EN" "http://www.w3.org/Graphics/SVG/1.1/DTD/svg11.dtd">
<svg version="1.1" id="Warstwa_1" xmlns="http://www.w3.org/2000/svg" xmlns:xlink="http://www.w3.org/1999/xlink" x="0px" y="0px"
	 viewBox="0 0 512 512" style="enable-background:new 0 0 512 512;" xml:space="preserve">
<style type="text/css">
	.st0{fill:#231F20;}
</style>
<path id="path-1_1_" class="st0" d="M242.8,287.4c-2.2,0-3.9-1.8-3.9-4v-90.5c0-2.2,1.8-4,3.9-4h14.8c2.2,0,3.9,1.8,3.9,4v67.6
	c0,2.2,1.8,4,3.9,4l0,0h64.9c2.2,0,3.9,1.8,3.9,4v15c0,2.2-1.8,4-3.9,4h-87.5V287.4z M446.4,247c-6.3,0-14.9,0-14.9,0
	c-8.7,0-9.7,5.5-9.7,7.9c0,0.5,0,1.8,0,1.8C421.5,348.4,347.5,423,256.9,423C166,423,92,348.1,92,256S166,89,256.9,89
	c24.3,0,47.7,5.2,69.6,15.6c8,3.8,11.5,13.4,7.7,21.5c-2.6,5.7-8.3,9.4-14.5,9.4c-2.3,0-4.6-0.5-6.7-1.5
	c-17.6-8.3-36.5-12.5-56.1-12.5c-73.3,0-132.9,60.4-132.9,134.6s59.6,134.6,132.9,134.6s132.9-60.1,132.9-134c0-8.6-5.2-9.7-9.6-9.7
	c0,0-8.7,0-15.1,0c-6.9,0-1.9-5.7-1.9-5.7l40.2-64.4c2-3,4.1-0.5,4.2-0.4l40.7,65C448.3,241.5,452.9,247,446.4,247z"/>
</svg>
