<?xml version="1.0" encoding="utf-8"?>
<!-- Generator: Adobe Illustrator 19.0.1, SVG Export Plug-In . SVG Version: 6.00 Build 0)  -->
<!DOCTYPE svg PUBLIC "-//W3C//DTD SVG 1.1//EN" "http://www.w3.org/Graphics/SVG/1.1/DTD/svg11.dtd">
<svg version="1.1" id="Warstwa_1" xmlns="http://www.w3.org/2000/svg" xmlns:xlink="http://www.w3.org/1999/xlink" x="0px" y="0px"
	 viewBox="0 0 512 512" style="enable-background:new 0 0 512 512;" xml:space="preserve">
<style type="text/css">
	.st0{fill:#FFFFFF;}
</style>
<g>
	<path class="st0" d="M387.8,395c-0.3,0-1.5,0.3-3.6,0.6c-81.5,14.6-96.5,17.1-98.2,17.3c-4,0.5-7,0.2-9.2-0.7
		c-1.3-0.6-2.1-1.3-2.3-1.6c0.1-0.6,0.8-1.9,1.2-2.7c0.4-0.8,0.9-1.7,1.3-2.7c2.8-6.4,0.8-12.9-5.1-16.9c-4.4-3-10.3-4.2-17.5-3.6
		c-4.3,0.4-79.5,13-120.8,19.9l-20.3,15.9c47.3-8,137.4-23.1,142.1-23.6c4.2-0.4,7.5,0.2,9.6,1.6c1.2,0.8,1.1,1.1,0.7,1.8
		c-0.2,0.5-0.6,1.2-0.9,1.8c-1.4,2.5-3.2,6-2.6,10.3c0.7,4.7,4.1,8.8,9.5,11.2c3,1.3,6.5,2,10.5,2c1.6,0,3.3-0.1,5-0.3
		c3.2-0.4,36.5-6.2,98.9-17.4c2.1-0.4,3.3-0.6,3.6-0.6c3.4-0.6,5.6-3.8,5-7.2C394.4,396.6,391.2,394.4,387.8,395L387.8,395z
		 M387.8,395"/>
	<path class="st0" d="M169.1,335l-52.5,54.9c-5.8,6-9.9,13.5-11.8,21.7l74.5-58.6c23.3,10.3,42,13.6,56.2,13.6
		c25.1,0,36.7-10.2,36.7-10.2c-23.4-12.2-26.7-34.8-26.7-34.8c17.9,7.6,55.2,16.5,55.2,16.5c49.5-33,75.4-104.6,75.4-104.6
		c-5.1,1.4-10,2-14.6,2c-23.2,0-39.2-14.9-39.2-14.9l64.7-14.1c21.5-44.1,23.6-121.3,23.6-121.3L214,260
		C191.7,279.8,176,306,169.1,335L169.1,335z M169.1,335"/>
</g>
</svg>
