<?xml version="1.0" encoding="utf-8"?>
<!-- Generator: Adobe Illustrator 19.0.1, SVG Export Plug-In . SVG Version: 6.00 Build 0)  -->
<!DOCTYPE svg PUBLIC "-//W3C//DTD SVG 1.1//EN" "http://www.w3.org/Graphics/SVG/1.1/DTD/svg11.dtd">
<svg version="1.1" id="Warstwa_1" xmlns="http://www.w3.org/2000/svg" xmlns:xlink="http://www.w3.org/1999/xlink" x="0px" y="0px"
	 viewBox="0 0 512 512" style="enable-background:new 0 0 512 512;" xml:space="preserve">
<style type="text/css">
	.st0{fill:#FFFFFF;}
</style>
<g>
	<path class="st0" d="M257.7,252.3c35.1,0,63.5-34.5,63.5-77.1c0-42.6-9.3-77.1-63.5-77.1s-63.5,34.5-63.5,77.1
		C194.1,217.8,222.6,252.3,257.7,252.3z"/>
	<path class="st0" d="M137.7,370.1C137.7,367.5,137.7,369.4,137.7,370.1L137.7,370.1z"/>
	<path class="st0" d="M377.6,372.2C377.6,371.5,377.6,367.2,377.6,372.2L377.6,372.2z"/>
	<path class="st0" d="M377.5,367c-1.2-74.2-10.9-95.4-85-108.8c0,0-10.4,13.3-34.8,13.3c-24.3,0-34.8-13.3-34.8-13.3
		c-73.4,13.2-83.6,34.1-85,106.3c-0.1,5.9-0.2,6.2-0.2,5.5c0,1.3,0,3.7,0,7.8c0,0,17.7,35.6,120,35.6c102.3,0,120-35.6,120-35.6
		c0-2.7,0-4.5,0-5.8C377.6,372.6,377.6,371.8,377.5,367z"/>
</g>
</svg>
