<?xml version="1.0" encoding="UTF-8" standalone="no"?>
<svg
   xmlns:dc="http://purl.org/dc/elements/1.1/"
   xmlns:cc="http://creativecommons.org/ns#"
   xmlns:rdf="http://www.w3.org/1999/02/22-rdf-syntax-ns#"
   xmlns:svg="http://www.w3.org/2000/svg"
   xmlns="http://www.w3.org/2000/svg"
   xml:space="preserve"
   viewBox="0 0 512 512"
   y="0px"
   x="0px"
   id="Capa_1"
   version="1.1"><metadata
     id="metadata23"><rdf:RDF><cc:Work
         rdf:about=""><dc:format>image/svg+xml</dc:format><dc:type
           rdf:resource="http://purl.org/dc/dcmitype/StillImage" /><dc:title></dc:title></cc:Work></rdf:RDF></metadata><defs
     id="defs21" /><g
     transform="translate(413.09073,0)"
     id="g3"><g
       id="g5"><polygon
         id="polygon7"
         points="-258.3,385.9 -239.1,385.9 -239.1,276 -218.5,276 -218.5,258 -278.6,258 -278.6,276 -258.3,276 " /><path
         id="path9"
         d="m -116.3,289.4 c -6.3,0 -12.3,3.5 -17.8,10.3 l 0,-41.7 -17.3,0 0,127.9 17.3,0 0,-9.2 c 5.8,7.1 11.7,10.5 17.8,10.5 6.9,0 11.5,-3.6 13.8,-10.7 1.2,-4 1.7,-10.4 1.7,-19.2 l 0,-37.9 c 0,-9 -0.6,-15.3 -1.7,-19.1 -2.3,-7.2 -6.9,-10.9 -13.8,-10.9 z m -1.7,69.2 c 0,8.6 -2.5,12.9 -7.5,12.9 -2.8,0 -5.7,-1.4 -8.6,-4.2 l 0,-58.1 c 2.9,-2.9 5.8,-4.2 8.6,-4.2 5,0 7.5,4.4 7.5,13 l 0,40.6 z" /><path
         id="path11"
         d="m -183.6,363.4 c -3.8,5.4 -7.4,8.1 -10.9,8.1 -2.3,0 -3.6,-1.4 -4,-4 -0.2,-0.6 -0.2,-2.7 -0.2,-6.7 l 0,-70.1 -17.3,0 0,75.3 c 0,6.7 0.6,11.3 1.5,14.2 1.7,4.8 5.6,7.1 11.1,7.1 6.4,0 12.9,-3.8 19.7,-11.7 l 0,10.4 17.3,0 0,-95.3 -17.3,0 0,72.7 z" /><path
         id="path13"
         d="m -168.8,202.6 c 5.6,0 8.3,-4.5 8.3,-13.4 l 0,-40.5 c 0,-8.9 -2.7,-13.3 -8.3,-13.3 -5.6,0 -8.3,4.4 -8.3,13.3 l 0,40.5 c 0,9 2.7,13.4 8.3,13.4 z" /><path
         id="path15"
         d="m -157.1,1.1 c -141.4,0 -256,114.6 -256,256 0,141.4 114.6,256 256,256 141.4,0 256,-114.6 256,-256 0,-141.4 -114.6,-256 -256,-256 z m 28.4,119.8 17.4,0 0,70.9 c 0,4.1 0,6.2 0.2,6.8 0.4,2.7 1.8,4.1 4.1,4.1 3.5,0 7.1,-2.7 11,-8.2 l 0,-73.6 17.4,0 0,96.3 -17.4,0 0,-10.5 c -6.9,8 -13.6,11.8 -19.9,11.8 -5.6,0 -9.5,-2.3 -11.2,-7.1 -1,-2.9 -1.5,-7.5 -1.5,-14.3 l 0,-76.2 -0.1,0 z m -65.8,31.4 c 0,-10.3 1.7,-17.8 5.5,-22.7 4.8,-6.6 11.6,-9.9 20.3,-9.9 8.7,0 15.5,3.3 20.3,9.9 3.7,4.9 5.4,12.4 5.4,22.7 l 0,33.7 c 0,10.2 -1.7,17.8 -5.4,22.6 -4.8,6.6 -11.6,9.9 -20.3,9.9 -8.7,0 -15.5,-3.3 -20.3,-9.9 -3.7,-4.8 -5.5,-12.4 -5.5,-22.6 l 0,-33.7 z m -46.7,-64.4 13.7,50.7 13.2,-50.7 19.6,0 -23.3,76.9 0,52.3 -19.3,0 0,-52.3 c -1.8,-9.3 -5.6,-22.9 -11.8,-40.9 -4.1,-12 -8.3,-24 -12.4,-36 0,0 20.3,0 20.3,0 z m 221.9,306.4 c -3.5,15.2 -15.9,26.4 -30.9,28.1 -35.4,4 -71.3,4 -107,4 -35.7,0 -71.5,0 -107,-4 -15,-1.7 -27.4,-12.9 -30.9,-28.1 -5,-21.6 -5,-45.2 -5,-67.5 0,-22.3 0.1,-45.9 5,-67.5 3.5,-15.2 15.9,-26.4 30.9,-28.1 35.4,-4 71.3,-4 107,-4 35.7,0 71.5,0 107,4 15,1.7 27.4,12.9 30.9,28.1 5,21.6 4.9,45.2 4.9,67.5 0,22.3 0.1,45.9 -4.9,67.5 z" /><path
         id="path17"
         d="m -61.3,289.4 c -8.8,0 -15.7,3.2 -20.7,9.8 -3.7,4.8 -5.3,12.3 -5.3,22.4 l 0,33.4 c 0,10.1 1.9,17.6 5.5,22.4 5,6.5 11.9,9.8 20.9,9.8 9,0 16.1,-3.4 20.9,-10.3 2.1,-3.1 3.5,-6.5 4,-10.3 0.2,-1.7 0.4,-5.6 0.4,-11.1 l 0,-2.5 -17.6,0 c 0,6.9 -0.2,10.8 -0.4,11.7 -1,4.6 -3.5,6.9 -7.7,6.9 -5.9,0 -8.8,-4.4 -8.8,-13.2 l 0,-16.9 34.5,0 0,-19.7 c 0,-10.2 -1.7,-17.6 -5.3,-22.4 -4.9,-6.7 -11.7,-10 -20.4,-10 z m 8.4,37.6 -17.3,0 0,-8.8 c 0,-8.8 2.9,-13.2 8.7,-13.2 5.7,0 8.6,4.4 8.6,13.2 l 0,8.8 z" /></g></g></svg>